<?xml version="1.0" standalone="no"?>
<!DOCTYPE svg PUBLIC "-//W3C//DTD SVG 1.1//EN" "http://www.w3.org/Graphics/SVG/1.1/DTD/svg11.dtd" >
<svg xmlns="http://www.w3.org/2000/svg">
<metadata>
This is a custom SVG webfont generated by Font Squirrel.
Copyright   :  2001 Apostrophic Labs All rights reserved Web wwwapostrophiclabcom  Email apostrophehomecom
</metadata>
<defs>
<font id="webfontbLen9XIx" horiz-adv-x="1118" >
<font-face units-per-em="2048" ascent="1638" descent="-410" />
<missing-glyph horiz-adv-x="569" />
<glyph unicode=" "  horiz-adv-x="569" />
<glyph unicode="&#x09;" horiz-adv-x="569" />
<glyph unicode="&#xa0;" horiz-adv-x="569" />
<glyph unicode="!" horiz-adv-x="497" d="M647 1462q0 49 -41 49h-147q-20 0 -35.5 -14t-20.5 -35l-157 -956v-6l-2 -4q0 -16 11 -28.5t28 -12.5h127q16 0 35.5 15t23.5 36zM446 145q0 4 3 15v14q0 61 -36 102t-91 41q-63 0 -117.5 -51t-65.5 -121q-4 -16 -4 -32q0 -59 37 -98.5t90 -39.5q61 0 115.5 50t68.5 120z " />
<glyph unicode="&#x22;" horiz-adv-x="905" d="M1042 1464q0 53 -38 54h-191q-23 0 -40 -16.5t-21 -37.5l-47 -454v-4v-5q0 -37 43 -36h124q45 0 58 45zM707 1464q0 53 -39 54h-191q-23 0 -40 -16.5t-21 -37.5l-47 -454v-4v-5q0 -16 12 -26t29 -10h127q45 0 57 45z" />
<glyph unicode="#" horiz-adv-x="1122" d="M1221 862q51 0 61 51l21 123v6l2 7q0 39 -43 38h-138l117 367l2 8q0 49 -41 49h-133q-43 0 -57 -45l-119 -379h-148l117 367l2 8q0 23 -12 36t-31 13h-131q-20 0 -36.5 -13t-22.5 -32l-119 -379h-168q-51 0 -61 -51l-21 -123v-6l-2 -6q0 -39 43 -39h135l-65 -209h-166 q-51 0 -57 -51l-23 -123q0 -51 41 -51h133l-115 -371l-2 -8q0 -49 43 -49h131q20 0 37 12.5t23 30.5l117 385h145l-115 -371l-2 -8q0 -49 43 -49h131q20 0 37 12.5t23 30.5l118 385h170q53 0 60 51l22 123q0 51 -43 51h-137l66 209h168zM672 862h145l-63 -209h-148z" />
<glyph unicode="$" horiz-adv-x="1116" d="M1153 436q8 49 8 90q0 139 -81 217t-236 134l74 415q66 -4 115.5 -17t96.5 -34q8 -6 25 -6q14 0 31.5 9t23.5 26l-2 -2l56 100q12 12 12 29q0 2 2 8v6q0 25 -29 33q-55 23 -133 44t-160 28l21 108q0 51 -41 51h-107q-51 0 -57 -51l-20 -113q-182 -31 -303 -138t-150 -275 q-6 -41 -6 -76q0 -70 25.5 -125t69.5 -94t96.5 -66.5t121.5 -54.5l-80 -451q-80 6 -145.5 25.5t-140.5 52.5l-2 2q-8 8 -25 8q-20 0 -37.5 -14t-21.5 -37l-25 -143q0 -41 23 -47q68 -29 151.5 -49.5t181.5 -26.5l-20 -117v-6q-2 -4 -2 -6q0 -39 43 -39h106q47 0 58 51 l22 127q186 33 308 143.5t153 280.5zM891 432q-20 -127 -156 -174l62 348q49 -27 73.5 -59.5t24.5 -77.5q0 -17 -4 -37zM553 1120q23 121 158 160l-58 -328q-102 55 -102 138v14q2 10 2 16z" />
<glyph unicode="%" horiz-adv-x="2285" d="M2230 412q6 41 6 80q0 154 -102 255t-264 101q-90 0 -176 -34t-158 -93t-119 -139t-63 -170q-6 -39 -6 -78q0 -156 103 -257.5t265 -101.5q90 0 176 34t157 93.5t118 139.5t63 170zM1239 1102q6 39 6 78q0 156 -103.5 257t-264.5 101q-90 0 -176.5 -32.5t-157 -93 t-117.5 -139.5t-64 -171q-6 -39 -6 -78q0 -156 102.5 -256t264.5 -100q90 0 176 32.5t157.5 93t119 139.5t63.5 169zM2075 1423l-4 -4q14 12 18 35v6q2 2 2 6q0 18 -16 29h2l-95 74l5 -2q-12 12 -31 12q-25 0 -37 -12l-1399 -1477l2 4q-18 -14 -20 -35v-6l-2 -6 q0 -12 10 -22l98 -78q16 -10 31 -10q20 0 37 12zM1989 412q-14 -84 -82 -145.5t-150 -61.5q-72 0 -117 49t-45 123v16q2 10 2 19q16 86 83 146t149 60q72 0 118 -48t46 -119q0 -21 -4 -39zM995 1102q-14 -84 -82.5 -145.5t-148.5 -61.5q-72 0 -118 48t-46 120q0 20 4 39 q16 86 84 146.5t150 60.5q70 0 115.5 -48.5t45.5 -119.5q0 -21 -4 -39z" />
<glyph unicode="&#x26;" horiz-adv-x="1449" d="M1513 156l-38 77v-2q-4 8 -14.5 15.5t-20.5 7.5q-8 0 -27 -8q-2 0 -6 -2q-14 -10 -28.5 -18.5t-24.5 -8.5q-20 0 -45 29v-2l-115 143q6 2 14 16v-2l193 246h80q49 0 59 51l21 113q0 49 -43 49h-195q-10 0 -27.5 -9t-21.5 -17v2l-213 -277l-195 248q160 82 247 167 t108 212q6 35 6 69q0 135 -96.5 209t-247.5 74q-174 0 -311.5 -98.5t-165.5 -270.5q-6 -35 -7 -69q0 -68 25 -127.5t72 -122.5q-160 -82 -251 -188.5t-118 -253.5q-6 -37 -6 -72q0 -82 31.5 -148.5t87 -113.5t127 -73t153.5 -26q133 0 248 46.5t242 160.5l82 -100v2 q43 -53 79.5 -68.5t77.5 -15.5q68 0 136.5 35t117.5 74zM578 199q-84 0 -140.5 55t-56.5 139q0 18 4 39q25 135 240 252l254 -332q-160 -153 -301 -153zM981 1184q-10 -55 -71.5 -110.5t-166.5 -108.5q-43 55 -66.5 99t-23.5 87q0 2 2 12v11q14 78 67.5 120.5t127.5 42.5 q59 0 96 -35.5t37 -91.5v-12q-2 -10 -2 -14z" />
<glyph unicode="'" horiz-adv-x="485" d="M651 1464q0 53 -39 54h-170q-20 0 -36.5 -16.5t-20.5 -37.5l-51 -454v-4v-7q0 -35 39 -34h112q16 0 33 12t23 33z" />
<glyph unicode="(" horiz-adv-x="530" d="M518 -223h2q10 12 12 30q0 4 3 9v2q0 4 -3 8q-2 2 -2 6q-59 143 -87.5 265t-28.5 253q0 123 24 266q37 211 130.5 410t238.5 371q10 16 10 24v6q2 4 2 7q0 16 -16 26h2l-100 84l-9 4q-6 6 -18 6q-25 0 -39 -14q-176 -203 -295 -439.5t-162 -484.5q-23 -131 -22 -264 q0 -176 39 -345t116 -320q6 -8 29 -9q12 0 18 5q2 0 5 2z" />
<glyph unicode=")" horiz-adv-x="530" d="M604 616q23 127 23 258q0 176 -40 347.5t-116 322.5q-2 2 -4 2q-8 8 -25 8q-23 0 -34 -12l4 2l-129 -80q-25 -12 -29 -41q0 -2 -2 -8v-6v-4q2 -6 2 -8q61 -141 90 -264t29 -252q0 -121 -25 -265q-37 -213 -131 -411.5t-240 -370.5q-8 -10 -8 -22q0 -4 -2 -9v-6 q0 -12 6 -18l109 -90l-4 2q12 -12 31 -13q25 0 34 9q178 209 298 445t163 484z" />
<glyph unicode="*" horiz-adv-x="876" d="M1049 1139v-2q37 8 43 47q0 20 -5 26l-18 131q-12 35 -41 35h-6l-8 -2l-217 -80l49 209v6l2 7q0 41 -41 40h-150q-20 0 -37.5 -14t-21.5 -39l-27 -209l-184 80l-8 2h-8q-16 0 -32.5 -10t-23.5 -27l2 2l-73 -145l-2 -4q-2 -4 -2 -6q0 -29 24 -45l199 -64l-162 -166l4 4 q-10 -8 -13 -14t-5 -18q0 -25 6 -35l108 -96l5 -2q8 -8 22 -9q25 0 45 25l152 182l90 -178q2 -16 13 -22.5t26 -6.5q23 0 37 13l-5 -2l132 90h-3q25 14 31 39v6q2 4 2 6q0 12 -6 20l-111 164z" />
<glyph unicode="+" horiz-adv-x="1124" d="M1188 526q51 0 61 52l25 141v6l2 6q0 39 -45 39h-391l69 393v8q2 2 2 7q0 35 -43 34h-147q-47 0 -57 -49l-70 -393h-391q-49 0 -60 -51l-24 -141v-7l-2 -6q0 -39 43 -39h391l-70 -393q0 -51 41 -51h148q51 0 57 51l70 393h391z" />
<glyph unicode="," horiz-adv-x="520" d="M487 240l-180 53h-4q-43 0 -57 -43q-35 -102 -92.5 -214t-110.5 -188q-10 -16 -10 -22v-6q-2 -2 -2 -6q0 -31 32 -37l-4 2l101 -37h8q27 0 33 6q35 37 74.5 85t80.5 108q94 133 148 254z" />
<glyph unicode="-" horiz-adv-x="641" d="M629 328q51 0 57 47l23 123q0 47 -41 47h-463q-53 0 -60 -47l-22 -123q0 -47 43 -47h463z" />
<glyph unicode="." horiz-adv-x="497" d="M442 133q0 6 2 14v15q0 51 -35.5 88t-91.5 37q-61 0 -115.5 -46t-66.5 -108v-12q-2 -10 -2 -12q0 -55 37 -92t92 -37q61 0 115.5 45t64.5 108z" />
<glyph unicode="/" horiz-adv-x="731" d="M1051 1450v6l2 4q0 31 -29 39l2 -2l-108 41q-8 10 -27 10q-35 0 -49 -30v2l-842 -1430q-12 -10 -12 -24v-5q-2 -4 -2 -6q0 -33 26 -39l-2 2l107 -47q8 -8 24 -8q39 0 56 35l-4 -4l847 1429q4 6 9 21z" />
<glyph unicode="0" horiz-adv-x="1120" d="M1237 756q25 139 25 264q0 106 -20.5 198.5t-68 164t-128 112.5t-195.5 41q-152 0 -267.5 -69.5t-194.5 -184.5t-126 -249t-74 -277q-25 -139 -24 -260q0 -109 20.5 -201t67.5 -164t128 -114t195 -42q152 0 267.5 70t194.5 184.5t127 249t73 277.5zM967 756 q-14 -88 -39 -177.5t-66 -174.5t-102.5 -139t-143.5 -54q-100 0 -141 81t-41 212q0 59 7.5 124.5t17.5 127.5q16 90 40.5 180t65.5 174t102.5 138.5t141.5 54.5q100 0 142 -81t42 -214q0 -61 -8 -127t-18 -125z" />
<glyph unicode="1" horiz-adv-x="1087" d="M831 0q51 0 58 51l20 117v8q2 2 2 6q0 37 -41 37h-120l219 1241q0 51 -43 51h-8l-369 -102v2q-16 -4 -28.5 -18.5t-16.5 -30.5l-21 -123v-6l-2 -4q0 -39 41 -39h6l144 37l-178 -1008h-123q-49 0 -60 -51l-20 -117q0 -51 41 -51h499z" />
<glyph unicode="2" horiz-adv-x="1120" d="M1077 336l-106 16h-8q-18 0 -33 -12t-21 -29q-31 -74 -104 -73q-16 0 -55 8l-19 2q-2 0 -12 2q-8 0 -14 2h-5q-45 12 -81.5 17t-92.5 5q-18 0 -30 -2l239 203q199 166 319 316.5t148 308.5q8 53 8 98q0 166 -107.5 252t-289.5 86q-72 0 -143.5 -17.5t-132 -45 t-108.5 -57.5t-79 -56q-23 -10 -24 -37q0 -20 4 -31l51 -90v2q8 -23 35 -22q23 0 39 14h-2q49 39 127.5 71.5t158.5 32.5q98 0 146.5 -40.5t48.5 -114.5q0 -23 -4 -49q-16 -92 -93 -201t-247 -258l-516 -449v2q-4 -4 -11.5 -17t-9.5 -19l-18 -111v-4v-6q0 -16 12 -28.5 t29 -12.5h8q20 4 33 6q88 12 151.5 19.5t132.5 7.5q35 0 117 -13q10 -2 33 -6h-4q2 0 12 -2q8 0 12 -2q96 -18 162 -18q135 0 238.5 83t132.5 236z" />
<glyph unicode="3" horiz-adv-x="1116" d="M1094 444q6 41 6 80q0 90 -37 163t-109 114q88 55 144.5 139t75.5 186q8 43 8 82q0 156 -112 242t-292 86q-123 0 -241.5 -46t-217.5 -106q-16 -12 -20 -34q0 -16 8 -35l39 -92v6q4 -31 39 -31q10 0 14 2q10 0 15 4q4 2 10 8q72 39 143.5 66t151.5 27q96 0 144 -41 t48 -113q0 -18 -4 -41q-10 -59 -39.5 -99t-68.5 -60.5t-83 -29t-89 -8.5h-49q-51 0 -62 -51l-24 -139q0 -51 43 -51h49q104 0 174.5 -43t70.5 -137q0 -23 -4 -48q-18 -106 -99 -170.5t-189 -64.5q-121 0 -194 27.5t-157 82.5q-2 2 -6 5q-6 4 -18 4q-20 0 -38 -14.5 t-20 -37.5l-26 -153q0 -41 24 -47q88 -49 183.5 -75t210.5 -26q98 0 196.5 30t182 89.5t141.5 148t78 201.5z" />
<glyph unicode="4" horiz-adv-x="1120" d="M1102 340q51 0 61 51l21 119v6l2 6q0 39 -45 39h-119l160 899q0 51 -43 51h-234q-12 0 -26.5 -9t-20.5 -17v2l-721 -914l-31 -182v-8q-2 -2 -2 -6q0 -37 41 -37h588l-22 -127h-88q-47 0 -58 -51l-20 -111q0 -51 41 -51h432q20 0 37.5 14.5t19.5 36.5l21 111v6q2 2 2 4 q0 41 -43 41h-94l22 127h119zM393 561l490 625l-111 -625h-379z" />
<glyph unicode="5" horiz-adv-x="1116" d="M1120 496q10 59 10 114q0 184 -109.5 286.5t-307.5 102.5q-84 0 -152 -12l64 285h522q23 0 40 14t21 35l25 141q0 49 -43 49h-698q-18 0 -37 -15t-23 -32l-162 -729q0 -49 41 -49q23 0 35 10l-8 -4q76 37 156.5 56.5t144.5 19.5q104 0 161.5 -50t57.5 -151q0 -33 -6 -71 q-25 -129 -105.5 -206t-209.5 -77q-94 0 -161 22.5t-143 75.5q-14 8 -20 10.5t-12 2.5q-20 0 -38 -14.5t-22 -35.5l-28 -153q0 -35 20 -45q66 -41 157 -71t222 -30q106 0 207.5 37t184.5 106.5t139.5 166t76.5 211.5z" />
<glyph unicode="6" horiz-adv-x="1120" d="M1200 496q10 59 10 112q0 182 -108.5 285.5t-296.5 103.5q-158 0 -295 -98q61 215 162.5 312.5t220.5 97.5q74 0 124 -16.5t91 -39.5q10 -6 12 -6q10 -8 29 -8q37 0 53 35l-4 -4l64 102q8 8 14 25v4q0 35 -19 43h3q-49 35 -135.5 63.5t-194.5 28.5q-137 0 -261 -62.5 t-198 -150.5v2q-96 -111 -159.5 -241t-98.5 -324q-31 -172 -31 -297q0 -106 25 -193q82 -295 405 -295q102 0 199.5 37t177.5 106.5t135.5 166t75.5 211.5zM932 483q-23 -119 -103.5 -198.5t-183.5 -79.5q-88 0 -140 56t-52 155q0 33 6 67q23 129 101.5 206t182.5 77 q90 0 142.5 -57.5t52.5 -155.5q0 -33 -6 -70z" />
<glyph unicode="7" d="M1294 1341l23 119q0 51 -43 51h-877q-51 0 -57 -51l-25 -137v-8q-2 -2 -2 -6q0 -37 41 -37h637l-741 -1200l2 2q-6 -8 -8 -21l-2 -4q0 -49 43 -49h159q12 0 28.5 10t25.5 23v-2z" />
<glyph unicode="8" d="M1149 440q6 39 6 78q0 92 -38 169t-105 122q80 53 135 136t72 173q8 41 8 82q0 152 -104.5 244t-274.5 92q-94 0 -180 -29.5t-156 -86t-117 -133.5t-63 -169q-6 -33 -6 -65q0 -74 27.5 -137.5t78.5 -106.5q-106 -53 -177 -151.5t-93 -217.5q-8 -47 -8 -92 q0 -172 116.5 -272.5t302.5 -100.5q104 0 199.5 32t173.5 92.5t131.5 147.5t71.5 193zM889 442q-18 -102 -98 -172.5t-179 -70.5q-86 0 -139 55t-53 141q0 23 4 47q18 102 97 173t177 71q88 0 141.5 -55.5t53.5 -141.5q0 -22 -4 -47zM971 1122q-14 -84 -81 -141t-149 -57 q-72 0 -116.5 45t-44.5 114q0 20 4 39q14 88 79.5 143.5t147.5 55.5q74 0 119 -43t45 -115q0 -21 -4 -41z" />
<glyph unicode="9" horiz-adv-x="1120" d="M1210 768q27 150 27 274q0 121 -25 205q-84 289 -405 289q-102 0 -200.5 -37t-177.5 -105.5t-133 -162.5t-75 -207q-10 -55 -10 -104q0 -176 108.5 -280.5t294.5 -104.5q80 0 155 19t140 64q-57 -209 -160.5 -309t-230.5 -100q-76 0 -137.5 17.5t-122.5 47.5v-2 q-10 6 -22 7q-49 0 -56 -52l-26 -141q0 -39 22 -47h-2q78 -33 149.5 -48.5t176.5 -15.5q129 0 254 58.5t207 154.5q90 104 153 248t96 332zM967 1038q-23 -129 -102 -199.5t-187 -70.5q-90 0 -144.5 60.5t-54.5 154.5q0 27 4 55q23 119 101 195t190 76q90 0 144.5 -61.5 t54.5 -153.5q0 -27 -6 -56z" />
<glyph unicode=":" horiz-adv-x="497" d="M446 145q0 4 3 15v14q0 59 -36 99t-91 40q-63 0 -117.5 -50t-65.5 -118q-4 -16 -4 -32q0 -59 37 -98.5t90 -39.5q61 0 115.5 50t68.5 120zM569 852q0 6 2 16v17q0 57 -34.5 96t-90.5 39q-63 0 -117.5 -49t-66.5 -119q0 -4 -2 -14v-15q0 -59 37 -99t90 -40q61 0 115.5 50 t66.5 118z" />
<glyph unicode=";" horiz-adv-x="520" d="M489 248l-178 55l-4 2h-4q-16 0 -32.5 -13t-24.5 -32q-35 -106 -92.5 -224t-112.5 -198l6 8q-10 -8 -14 -26l-2 -4v-6q-2 -2 -2 -7q0 -31 32 -36l-4 2l101 -41h8q25 0 35 10q76 76 163 205t140 256zM602 860q0 4 2 14v17q0 57 -37 97t-94 40q-66 0 -122 -50t-68 -118 q0 -4 -2 -14v-15q0 -59 37.5 -100t93.5 -41q63 0 120.5 50t69.5 120z" />
<glyph unicode="&#x3c;" horiz-adv-x="1124" d="M1096 84h8l8 -2q20 0 37.5 14.5t19.5 36.5l27 146q0 39 -25 47h3l-687 321l801 324q10 4 22.5 19.5t16.5 27.5l25 145v6q2 2 2 5q0 39 -41 38q-12 0 -25 -6l2 2l-1110 -450h2q-12 -4 -24.5 -19.5t-16.5 -27.5l-22 -125q0 -16 6 -30.5t16 -16.5z" />
<glyph unicode="=" horiz-adv-x="1124" d="M1157 350q51 0 62 51l22 136q0 49 -43 49h-1028q-23 0 -39 -14.5t-20 -34.5l-23 -136v-6l-2 -6q0 -39 43 -39h1028zM1212 657q51 0 60 50l22 135v6l2 6q0 37 -43 37h-1028q-51 0 -61 -49l-23 -135v-7l-2 -6q0 -37 45 -37h1028z" />
<glyph unicode="&#x3e;" horiz-adv-x="1124" d="M1210 539q12 4 24.5 19t14.5 28l23 125q0 39 -25 47h2l-948 450l2 -2q-12 6 -24 6q-47 0 -58 -49l-24 -145q0 -41 22 -47l684 -324l-799 -321h2q-12 -4 -25 -19.5t-15 -27.5l-27 -146q0 -51 43 -51l8 2h8z" />
<glyph unicode="?" horiz-adv-x="952" d="M1122 1159q8 43 8 84q0 147 -102 226t-278 79q-141 0 -260 -59t-203 -137l2 2q-14 -12 -21 -35v-2v-8q-2 -6 -2 -9q0 -10 8 -20v2l62 -88q12 -14 35 -14t39 14q53 49 126.5 88t155.5 39q86 0 129 -35t43 -100q0 -18 -4 -39q-10 -63 -59 -119.5t-133 -128.5l2 2l-23 -20 q-55 -51 -86 -85t-53.5 -70t-36.5 -79t-25 -106l-18 -95q0 -51 41 -51h154q20 0 37.5 14.5t19.5 36.5l14 82q14 76 41 117t80 82q139 119 211.5 210t95.5 222zM670 145q0 6 2 15v12q0 61 -40 103t-102 42q-70 0 -127 -51t-67 -121q0 -6 -2 -16v-14q0 -59 40 -99.5t97 -40.5 q68 0 126.5 50t72.5 120z" />
<glyph unicode="@" horiz-adv-x="1605" d="M1737 889q10 57 10 112q0 121 -46 221.5t-130 174t-196.5 112.5t-244.5 39q-162 0 -317.5 -61.5t-285.5 -175t-219 -269t-122 -340.5q-12 -74 -12 -143q0 -188 90 -330v2q80 -125 221.5 -196.5t343.5 -71.5q109 0 212.5 22.5t191.5 58.5t153.5 71t120.5 71q16 12 19 35 q0 10 -2 17v4l-51 102q-2 2 -5 2q-8 8 -24 8q-12 0 -41 -12l-8 -4q-119 -70 -242 -117t-289 -47q-135 0 -235.5 49t-153.5 135q-66 102 -65 242q0 53 10 111q23 133 86 247.5t155.5 200.5t204 133t228.5 47q109 0 203 -43t151 -120h-131q-12 0 -27.5 -9.5t-23.5 -21.5 q-66 70 -187 69q-102 0 -203.5 -45t-188.5 -126.5t-146.5 -190.5t-81.5 -231q-6 -37 -6 -72q0 -123 74.5 -192.5t197.5 -69.5q129 0 254 84q14 -43 56 -63.5t102 -20.5q84 0 177 39t180 115.5t151.5 190.5t91.5 257zM1092 752q-49 -113 -126 -182.5t-169 -69.5t-92 92 q0 16 4 35q12 74 45.5 143.5t81 122.5t100.5 84t102 31q96 0 97 -93q0 -16 -5 -38q-9 -59 -38 -125zM1509 879q-14 -76 -44.5 -143.5t-72.5 -117t-87 -77t-88 -29.5l-3 4l271 596q31 -70 31 -156q-1 -38 -7 -77z" />
<glyph unicode="A" horiz-adv-x="1353" d="M1333 0q53 0 60 51l20 117v6l2 6q0 39 -43 39h-84l-207 1258l2 -2q-4 37 -43 36h-168q-14 0 -30.5 -11t-22.5 -23l-682 -1258h-78q-20 0 -37.5 -14.5t-21.5 -36.5l-20 -117q0 -51 40 -51h224q14 0 30.5 11.5t22.5 23.5l240 457h430l71 -457l-2 2q0 -14 14.5 -25.5 t30.5 -11.5h252zM874 1122l56 -397h-271z" />
<glyph unicode="B" horiz-adv-x="1280" d="M1319 442q6 37 6 72q0 96 -46 173t-128 116q182 111 217 313q6 41 6 76q0 86 -35.5 147.5t-99 99.5t-144.5 55t-173 17h-545q-53 0 -60 -51l-20 -117v-6l-2 -6q0 -39 43 -39h68l-189 -1073h-67q-51 0 -62 -51l-20 -117q0 -51 43 -51h534q117 0 225.5 21.5t201.5 71.5 t158.5 137t88.5 212zM1034 449q-18 -106 -105 -164t-210 -58h-238l78 445h242q106 0 171.5 -42t65.5 -134q0 -22 -4 -47zM1087 1094q-10 -57 -38.5 -95t-70.5 -59.5t-91 -31t-103 -9.5h-186l70 385h202q104 0 163 -36t59 -113q-1 -21 -5 -41z" />
<glyph unicode="C" horiz-adv-x="1245" d="M1475 1415v6l2 4q0 31 -29 39l4 -2q-86 39 -180 62.5t-219 23.5q-156 0 -299.5 -56t-258 -161.5t-192.5 -252t-108 -322.5q-16 -96 -17 -187q0 -279 158 -442.5t434 -163.5q127 0 236.5 26.5t195.5 67.5q27 12 35 45l27 150q0 51 -41 51q-23 0 -35 -10l10 4 q-84 -43 -170 -66.5t-192 -23.5q-172 0 -272.5 115.5t-100.5 304.5q0 63 12 129q20 117 68.5 219t120 177t163 117t195.5 42q86 0 154.5 -17.5t140.5 -48.5q6 -6 26 -6q39 0 56 35l-4 -2l65 114q8 8 15 25v4z" />
<glyph unicode="D" horiz-adv-x="1378" d="M1477 756q16 88 16 168q0 268 -170 427.5t-502 159.5h-440q-53 0 -59 -51l-21 -117v-6l-2 -6q0 -39 43 -39h68l-189 -1073h-67q-51 0 -62 -51l-20 -117q0 -51 43 -51h440q195 0 354.5 56.5t275 158.5t189.5 239.5t103 301.5zM1198 756q-20 -115 -72.5 -212.5t-128 -169 t-166 -109.5t-188.5 -38h-156l187 1057h131q186 0 294.5 -112.5t108.5 -299.5q0 -55 -10 -116z" />
<glyph unicode="E" d="M1096 0q20 0 37.5 14.5t19.5 36.5l25 125v6l2 6q0 39 -41 39h-654l78 449h529q23 0 40 14.5t19 34.5l25 129q0 49 -43 49h-529l68 381h583q47 0 58 51l22 125q0 51 -41 51h-913q-53 0 -59 -51l-21 -117v-6l-2 -6q0 -39 43 -39h68l-189 -1073h-67q-51 0 -62 -51l-20 -117 q0 -51 43 -51h981z" />
<glyph unicode="F" horiz-adv-x="1042" d="M1253 1284q49 0 60 51l22 125q0 51 -43 51h-925q-53 0 -60 -51l-20 -117v-6l-2 -6q0 -39 43 -39h67l-188 -1073h-68q-51 0 -61 -51l-21 -117q0 -51 43 -51h416q53 0 59 51l21 117v6l2 6q0 39 -43 39h-88l82 469h463q53 0 59 49l23 127v6l2 7q0 39 -43 38h-463l65 369h598 z" />
<glyph unicode="G" horiz-adv-x="1331" d="M1305 119l116 663v6l2 7q0 39 -41 39h-290q-51 0 -62 -52l-20 -118v-7l-2 -6q0 -39 45 -39h80l-68 -376q-104 -31 -217 -31q-176 0 -275.5 113.5t-99.5 304.5q0 63 12 133q20 117 68.5 219t120 177t161 117t191.5 42q100 0 170 -21.5t131 -58.5l-8 4q8 -10 29 -10 q16 0 33.5 9t23.5 26l-2 -5l70 119q8 8 14 25v2q0 39 -23 47q-78 45 -178 72.5t-237 27.5q-154 0 -293.5 -56t-252 -161.5t-189 -252t-107.5 -322.5q-16 -96 -17 -189q0 -279 157 -441.5t433 -162.5q252 0 500 121z" />
<glyph unicode="H" horiz-adv-x="1486" d="M1393 0q53 0 59 51l21 117v6l2 6q0 39 -43 39h-70l188 1073h70q51 0 61 51l21 117q0 51 -43 51h-283q-53 0 -59 -51l-100 -561h-629l100 561q0 51 -43 51h-283q-51 0 -57 -51l-20 -117v-8q-2 -2 -2 -6q0 -37 41 -37h69l-188 -1073h-70q-49 0 -59 -51l-21 -117 q0 -51 41 -51h283q53 0 59 51l111 621h629l-111 -621q0 -51 43 -51h283z" />
<glyph unicode="I" horiz-adv-x="559" d="M475 0q20 0 37.5 14.5t19.5 36.5l21 117v6l2 6q0 39 -41 39h-65l188 1073h65q20 0 38 14.5t22 36.5l20 117q0 51 -41 51h-381q-51 0 -57 -51l-20 -117v-8q-2 -2 -2 -6q0 -37 41 -37h63l-188 -1073h-64q-49 0 -59 -51l-21 -117q0 -51 41 -51h381z" />
<glyph unicode="J" horiz-adv-x="716" d="M877 1294q53 0 61 49l20 119v6l3 7q0 37 -46 36h-401q-47 0 -57 -49l-21 -119v-6l-2 -6q0 -37 41 -37h78l-164 -940q-14 -78 -46 -117.5t-93 -39.5q-49 0 -90 12t-82 35l-6 2h-9q-20 0 -37.5 -14.5t-19.5 -36.5l-24 -136q0 -14 6 -29.5t12 -17.5q53 -25 109.5 -37 t134.5 -12q160 0 262 95.5t131 254.5l172 981h68z" />
<glyph unicode="K" horiz-adv-x="1355" d="M1337 0q51 0 58 51l20 117v8q2 2 2 6q0 37 -41 37h-110l-312 729l375 344h168q51 0 62 51l20 117q0 51 -43 51h-264q-6 0 -20.5 -6t-18.5 -10l-631 -582l96 547q0 51 -41 51h-282q-53 0 -60 -51l-20 -117v-6l-2 -6q0 -39 43 -39h70l-189 -1073h-70q-51 0 -61 -51 l-20 -117q0 -51 43 -51h282q51 0 58 51l92 520l188 174l303 -720v2q2 -8 16.5 -17.5t24.5 -9.5h264z" />
<glyph unicode="L" horiz-adv-x="1110" d="M1092 0q20 0 37.5 14.5t19.5 36.5l22 125v6l3 6q0 39 -41 39h-652l187 1065h88q20 0 37.5 14.5t21.5 36.5l21 117q0 51 -41 51h-418q-53 0 -60 -51l-20 -117v-6l-2 -6q0 -39 43 -39h68l-189 -1073h-67q-51 0 -62 -51l-20 -117q0 -51 43 -51h981z" />
<glyph unicode="M" horiz-adv-x="1882" d="M1792 0q53 0 59 51l21 117v6l2 6q0 39 -43 39h-70l189 1073h69q51 0 62 51l20 117q0 51 -43 51h-377q-10 0 -27.5 -10t-23.5 -20l-602 -1026l-250 1026v-2q-2 12 -15 22t-26 10h-368q-53 0 -60 -51l-20 -117v-6l-2 -6q0 -39 43 -39h69l-188 -1073h-70q-51 0 -61 -51 l-21 -117q0 -51 43 -51h265q20 0 37.5 14.5t19.5 36.5l178 1006l250 -1026q0 -10 14.5 -20.5t26.5 -10.5h96q12 0 28.5 10t24.5 23v-2l605 1022l-179 -1002q0 -51 41 -51h283z" />
<glyph unicode="N" horiz-adv-x="1564" d="M1726 1292q51 0 62 51l20 117q0 51 -43 51h-270q-53 0 -59 -51l-183 -1028l-512 1057v-2q-2 8 -16 16t-23 8h-321q-20 0 -37.5 -14t-19.5 -37l-21 -117v-6l-2 -6q0 -39 41 -39h70l-189 -1073h-69q-20 0 -38 -14.5t-22 -36.5l-20 -117q0 -51 41 -51h272q20 0 37.5 14.5 t19.5 36.5l183 1028l514 -1056v2q4 -8 16 -16.5t21 -8.5h202q20 0 38 14.5t20 36.5l219 1241h69z" />
<glyph unicode="O" horiz-adv-x="1544" d="M1626 756q18 104 19 198q0 274 -153 434t-443 160q-172 0 -316.5 -58t-255 -163.5t-182.5 -251t-102 -319.5q-18 -102 -19 -195q0 -274 152.5 -436t443.5 -162q174 0 318.5 58.5t255 165t181 252t101.5 317.5zM1346 756q-20 -115 -64.5 -216.5t-111 -178t-157.5 -120.5 t-202 -44q-178 0 -264 109.5t-86 289.5q0 76 14 160q20 117 64.5 218t110 178t156.5 121t202 44q180 0 266 -109.5t86 -292.5q0 -75 -14 -159z" />
<glyph unicode="P" horiz-adv-x="1161" d="M1341 1053q8 51 9 96q0 172 -115 267t-324 95h-540q-53 0 -60 -51l-20 -117v-6l-2 -6q0 -39 43 -39h67l-188 -1073h-68q-51 0 -61 -51l-21 -117q0 -51 43 -51h412q53 0 59 51l21 117v6l2 6q0 39 -43 39h-84l68 383h213q240 0 395 117t194 334zM1073 1053 q-20 -111 -91 -167.5t-183 -56.5h-221l81 455h222q197 0 196 -176q0 -26 -4 -55z" />
<glyph unicode="Q" horiz-adv-x="1546" d="M1563 -94l-68 63l4 -2q-10 12 -33 13q-20 0 -36 -13q-70 -74 -136 -73q-25 0 -55 10l-231 90q254 66 419.5 269.5t217.5 496.5q18 104 18 198q0 274 -152.5 436t-443.5 162q-174 0 -319.5 -58t-255 -165.5t-181 -253t-102.5 -319.5q-18 -102 -19 -197q0 -215 94.5 -362.5 t276.5 -202.5q-88 -55 -153 -143l4 2q-10 -8 -15 -27l-2 -4q0 -31 17 -45l57 -41l6 -4q12 -8 25 -8q18 0 39 16l2 2q45 43 79.5 63.5t84.5 20.5q35 0 73 -12h-2l19 -6q27 -8 67 -27v2q2 -2 8 -4l4 -2q8 -4 37 -12l7 -2l192 -82q51 -20 109 -21q84 0 171 44t171 147z M1360 758q-20 -117 -63.5 -217.5t-110 -178t-157.5 -121.5t-202 -44q-178 0 -264 109.5t-86 291.5q0 76 15 160q20 117 63 218t110.5 180t158.5 123t202 44q178 0 264 -109.5t86 -289.5q0 -78 -16 -166z" />
<glyph unicode="R" horiz-adv-x="1236" d="M1217 0q20 0 37.5 14.5t19.5 36.5l20 117v6l2 6q0 39 -41 39h-86q-39 0 -49 47q-8 20 -12 96q0 23 -2 41l2 -2q-8 94 -25.5 163t-62.5 124q78 31 145 86q133 115 166 299q8 49 8 92q0 164 -113.5 255t-322.5 91h-541q-53 0 -59 -51l-20 -117v-6l-2 -6q0 -39 43 -39h67 l-188 -1073h-68q-51 0 -61 -51l-21 -117q0 -51 43 -51h400q53 0 59 51l20 117v6l3 6q0 39 -43 39h-70l74 422h182q68 -45 89 -127t28 -211q4 -78 11 -128t23.5 -90t51 -62.5t92.5 -22.5h201zM1055 1073q-35 -203 -252 -203h-223l73 414h224q184 0 184 -158q0 -24 -6 -53z " />
<glyph unicode="S" horiz-adv-x="1021" d="M1085 418q10 53 11 98q0 80 -28 140.5t-76 103.5t-113.5 76.5t-159.5 66.5q-127 45 -180.5 88t-53.5 107q0 16 4 37q14 84 94.5 134t192.5 50q90 0 155.5 -15.5t129.5 -41.5q8 -8 26 -9q37 0 54 31l59 113q8 8 14 24v4q0 39 -26 48l4 -3q-59 27 -168 52.5t-207 25.5 q-238 0 -395.5 -113.5t-194.5 -320.5q-8 -43 -8 -82q0 -82 32 -142.5t85 -103.5t113.5 -71.5t150.5 -61.5q106 -37 162.5 -83t56.5 -119q0 -18 -4 -39q-18 -104 -100 -156.5t-217 -52.5q-98 0 -178 23.5t-160 62.5l2 -2q-12 6 -25 6q-49 0 -55 -51l-27 -150q0 -39 23 -47h-2 q76 -35 176 -58.5t215 -23.5q250 0 414.5 118t203.5 337z" />
<glyph unicode="T" horiz-adv-x="1097" d="M1307 1284q49 0 59 51l23 125q0 51 -43 51h-1055q-51 0 -58 -51l-22 -125v-6q-2 -4 -2 -6q0 -39 43 -39h395l-188 -1065h-68q-49 0 -59 -51l-21 -117q0 -51 41 -51h400q53 0 59 51l20 117v6l3 6q0 39 -43 39h-68l188 1065h396z" />
<glyph unicode="U" horiz-adv-x="1468" d="M1612 1294q23 0 40 14.5t21 34.5l21 119v6l2 7q0 39 -45 38h-275q-49 0 -59 -51l-162 -913q-33 -184 -123 -268t-252 -84q-139 0 -203.5 56t-64.5 179q0 51 10 117l162 913v6l2 7q0 39 -45 38h-289q-20 0 -36.5 -14t-20.5 -37l-21 -119v-6l-2 -4q0 -39 41 -39h70 l-137 -778q-12 -76 -13 -143q0 -199 123 -304.5t381 -105.5q295 0 460 143.5t210 409.5l137 778h68z" />
<glyph unicode="V" horiz-adv-x="1355" d="M1561 1292q51 0 61 51l20 117q0 51 -43 51h-231q-39 0 -53 -36l2 2l-557 -1065l-176 1065l2 -2q-2 16 -14.5 26t-26.5 10h-258q-20 0 -38 -14t-20 -37l-20 -117v-6l-2 -6q0 -39 41 -39h84l219 -1257q4 -12 15.5 -23.5t25.5 -11.5h168q14 0 30.5 11.5t22.5 23.5l662 1257 h86z" />
<glyph unicode="W" horiz-adv-x="2045" d="M2251 1292q51 0 61 51l21 117q0 51 -43 51h-242q-16 0 -32.5 -10t-22.5 -26h2l-469 -1020l-105 1020h2q-2 14 -15 25t-30 11h-180q-16 0 -33.5 -10t-23.5 -26h2l-469 -1022l-105 1022h2q-2 14 -15 25t-30 11h-237q-53 0 -60 -51l-20 -117v-6l-2 -6q0 -39 43 -39h65 l131 -1255h-2q0 -14 14.5 -25.5t30.5 -11.5h183q16 0 32.5 10t24.5 27h-2l463 993l110 -993h-2q0 -14 14.5 -25.5t30.5 -11.5h183q16 0 32.5 10t24.5 27h-2l594 1255h76z" />
<glyph unicode="X" horiz-adv-x="1318" d="M1296 0q53 0 60 51l20 117v6l2 6q0 39 -43 39h-110l-283 578l416 495h123q20 0 37.5 14.5t21.5 36.5l21 117q0 51 -41 51h-228q-8 0 -24.5 -8t-22.5 -16l2 2l-405 -483l-240 483l2 -2q-2 8 -16.5 16t-22.5 8h-246q-53 0 -59 -51l-20 -117v-6l-2 -6q0 -39 43 -39h106 l256 -520l-465 -553h-119q-20 0 -37.5 -14.5t-21.5 -36.5l-20 -117q0 -51 40 -51h226q8 0 24.5 8t22.5 17l-2 -2l454 540l267 -540l-2 2q2 -8 16 -16.5t23 -8.5h247z" />
<glyph unicode="Y" horiz-adv-x="1198" d="M1405 1292q51 0 61 51l21 117q0 51 -43 51h-191q-10 0 -27.5 -9t-21.5 -17l-424 -563l-250 565v-2q-4 8 -15 17t-23 9h-207q-20 0 -38 -14t-20 -37l-20 -117v-6l-2 -6q0 -39 41 -39h69l285 -630l-78 -443h-67q-51 0 -62 -51l-20 -117q0 -51 43 -51h399q53 0 59 51l21 117 v6l2 6q0 39 -43 39h-68l80 451l463 622h76z" />
<glyph unicode="Z" horiz-adv-x="1107" d="M1087 0q53 0 60 51l24 129q0 51 -43 51h-743l973 1074l28 155q0 51 -43 51h-995q-51 0 -57 -51l-23 -129v-8q-2 -2 -2 -6q0 -37 41 -37h717l-967 -1067l-28 -162q0 -51 41 -51h1017z" />
<glyph unicode="[" horiz-adv-x="483" d="M393 -287q20 0 38 14.5t22 36.5l20 125v7l2 4q0 39 -41 39h-121l238 1353h121q20 0 37.5 14.5t21.5 36.5l21 125v7l2 4q0 39 -41 39h-301q-47 0 -60 -50l-299 -1704v-8q-2 -2 -2 -6q0 -37 41 -37h301z" />
<glyph unicode="\" horiz-adv-x="731" d="M768 18l-6 -2q18 4 29.5 19.5t15.5 30.5q0 18 -4 24l-338 1430v-2q-6 31 -43 30q-18 0 -29 -8l-121 -43l2 2q-35 -8 -43 -49v-4q-2 -6 -2 -8q0 -8 4 -15l340 -1429v4q2 -16 15.5 -25.5t27.5 -9.5q16 0 27 8z" />
<glyph unicode="]" horiz-adv-x="483" d="M328 -287q20 0 37.5 14.5t21.5 36.5l299 1704v7l2 4q0 39 -41 39h-303q-20 0 -36.5 -14.5t-20.5 -35.5l-21 -125v-6q-2 -4 -2 -6q0 -39 39 -39h121l-238 -1353h-120q-20 0 -37 -14.5t-21 -35.5l-20 -125v-8q-2 -2 -2 -6q0 -37 39 -37h303z" />
<glyph unicode="^" horiz-adv-x="1323" d="M1303 575l-7 -2q18 4 29.5 19.5t15.5 32.5q0 2 2 8v6q0 8 -8 16l4 -8l-297 815l2 -4q-2 14 -15 22.5t-25 8.5h-119q-12 0 -28.5 -8t-22.5 -23l2 4l-578 -815l4 8q-12 -12 -14 -30v-7q-2 -2 -2 -4q0 -35 26 -41l-2 2l109 -53l-2 2q12 -6 24 -6t26.5 6t23.5 21l430 608 l223 -612q4 -27 37 -27q16 0 28 6z" />
<glyph unicode="_" horiz-adv-x="1024" d="M961 -248q49 0 59 47l20 115q0 47 -43 47h-983q-53 0 -59 -47l-21 -115v-6l-2 -4q0 -37 45 -37h984z" />
<glyph unicode="`" horiz-adv-x="983" d="M899 1001q49 0 57 50q0 8 -2 20q-2 8 -2 10l-202 355v-4q-2 8 -16.5 16t-22.5 8h-154q-23 0 -39 -14.5t-20 -32.5q0 -25 8 -35v4l223 -356l-2 4q2 -8 16.5 -16.5t20.5 -8.5h135z" />
<glyph unicode="a" horiz-adv-x="1060" d="M1114 139l-37 88q-16 16 -37 17q-8 0 -24 -6l-4 -2l-4 -3q-4 -4 -7 -4q-2 0 -8 -4q-29 -12 -39 -12l78 432q10 53 10 100q0 145 -90 222t-272 77q-86 0 -171 -19t-157 -54q-33 -10 -37 -47l-2 -6q-2 -6 -2 -11q0 -6 4 -10l23 -94v2q6 -31 41 -31q23 0 35 10l-11 -4 q102 47 213 47q168 0 168 -125q0 -16 -4 -34v-4q-43 27 -99 43t-120 16q-186 0 -313 -104.5t-158 -268.5q-8 -45 -8 -86q0 -137 87 -213t249 -76q86 0 160.5 27t130.5 68q33 -70 147 -70q55 0 118.5 24.5t121.5 65.5zM729 354q-14 -74 -80.5 -120t-154.5 -46q-76 0 -114 34 t-38 93q0 16 4 35q12 74 64.5 118t134.5 44q90 0 138 -37t48 -96v-12q-2 -7 -2 -13z" />
<glyph unicode="b" horiz-adv-x="1167" d="M1231 518q12 74 12 137q0 186 -102.5 295t-302.5 109q-76 0 -151 -23.5t-140 -66.5l80 458q4 27 4 52q0 70 -39 112.5t-125 42.5q-51 0 -111.5 -22.5t-115.5 -59.5h2q-25 -12 -31 -41v-4v-10q0 -10 4 -16l31 -72q16 -16 37 -16q23 0 36 12l-6 -2q29 18 54 18q2 -2 2 -8 v-6q-2 -8 -2 -12l-238 -1344q0 -51 43 -51h154q53 0 59 51l4 21q47 -43 116.5 -70t156.5 -27q111 0 206 41t169.5 115t124 172t69.5 215zM965 518q-25 -137 -97.5 -226t-187.5 -89q-104 0 -160.5 67.5t-56.5 173.5q0 37 6 74q23 133 112 225.5t212 92.5q92 0 136 -60.5 t44 -161.5q0 -45 -8 -96z" />
<glyph unicode="c" horiz-adv-x="894" d="M1057 911l4 15q0 35 -31 53l-2 2q-66 29 -129 46t-154 17q-115 0 -217 -38.5t-184 -111.5t-136 -170t-75 -214q-10 -63 -10 -123q0 -190 111.5 -301t320.5 -111q82 0 166 20.5t151 47.5q10 4 22.5 19.5t16.5 27.5l23 129v4q2 4 2 6q0 16 -13.5 28.5t-31.5 12.5 q-12 0 -25 -6q-76 -37 -138 -52t-124 -15q-104 0 -161.5 63.5t-57.5 169.5q0 39 8 80q23 133 105 221t211 88q63 0 112 -12t90 -31q8 -8 27 -8q39 0 55 35l-2 -4z" />
<glyph unicode="d" horiz-adv-x="1193" d="M1272 141l-37 82q-14 25 -39 25q-16 0 -31 -10q-16 -10 -30.5 -16.5t-20.5 -6.5q-2 0 -2 4t4 21l209 1187q4 27 4 52q0 70 -39 112.5t-125 42.5q-51 0 -111.5 -22.5t-115.5 -59.5h2q-25 -12 -31 -41v-4v-10q0 -10 4 -16l-2 8l33 -82q8 -14 37 -14q23 0 37 12l-4 -2 q29 18 49 18q4 0 4 -8v-6q-2 -8 -2 -12l-74 -424q-98 88 -270 88q-106 0 -200.5 -40t-168 -114t-123 -173t-69.5 -214q-12 -74 -13 -139q0 -186 100.5 -295t295.5 -109q80 0 164 29t151 80q33 -84 156 -84q53 0 115.5 24.5t123.5 67.5zM911 518q-25 -133 -111.5 -225 t-205.5 -92q-90 0 -133 59t-43 158q0 47 10 100q23 137 96.5 227.5t186.5 90.5q100 0 153.5 -68t53.5 -176q-1 -37 -7 -74z" />
<glyph unicode="e" horiz-adv-x="1024" d="M1026 406q53 0 59 51l13 65q14 80 14 150q0 182 -96 277t-279 95q-111 0 -208 -38.5t-172.5 -109.5t-127 -169t-71.5 -217q-10 -66 -11 -123q0 -186 105.5 -299t314.5 -113q119 0 197 18.5t151 51.5q27 12 35 45l23 127q0 51 -41 51q-12 0 -25 -6q-59 -29 -128.5 -47 t-151.5 -18q-109 0 -161 60t-56 149h616zM694 831q78 0 116 -46t38 -132q0 -8 -2 -16v-19h-400q41 104 101.5 158.5t146.5 54.5z" />
<glyph unicode="f" horiz-adv-x="606" d="M995 1516l2 10v6q2 4 2 6q0 23 -16 33q-51 35 -96 49t-103 14q-90 0 -161.5 -31.5t-120.5 -85t-79 -118t-42 -133.5l-41 -230h-123q-51 0 -57 -51l-21 -111v-8q-2 -2 -2 -6q0 -35 43 -35h123l-137 -774q0 -51 41 -51h151q20 0 38 14.5t20 36.5l137 774h170q51 0 59 49 l21 111q0 51 -43 51h-170l31 174q16 92 45.5 145.5t91.5 53.5q23 0 46 -7t48 -18q8 -10 31 -10q12 0 27.5 9.5t23.5 21.5z" />
<glyph unicode="g" horiz-adv-x="1161" d="M1094 82l159 901q0 51 -43 51h-151q-53 0 -60 -51l-4 -14q-104 88 -268 88q-111 0 -206 -40t-170 -114t-124 -172t-69 -215q-12 -72 -13 -137q0 -186 101.5 -295t300.5 -109q72 0 147.5 22.5t141.5 65.5q-12 -63 -34 -118.5t-61 -100.5t-98 -71.5t-139 -26.5 q-88 0 -153.5 17.5t-123.5 43.5l2 -2q-10 6 -22 7q-20 0 -36.5 -14.5t-20.5 -35.5l-25 -133q0 -39 25 -45h-3q66 -29 146 -46t182 -17q258 0 416 150.5t203 410.5zM915 516q-23 -131 -111.5 -223t-209.5 -92q-92 0 -135 59t-43 158q0 47 8 98q25 139 96.5 228.5t186.5 89.5 q104 0 159.5 -68t55.5 -174q-1 -37 -7 -76z" />
<glyph unicode="h" horiz-adv-x="1122" d="M1206 129l-37 82q-14 25 -36 25q-10 0 -33 -11l-6 -2q-10 -6 -25.5 -13t-21.5 -7v2q2 8 2 14l79 457q10 53 11 100q0 135 -82 209t-254 74q-72 0 -136.5 -21.5t-119.5 -58.5l80 446q4 29 4 54q0 72 -39 113.5t-123 41.5q-51 0 -113.5 -22.5t-115.5 -59.5h2 q-27 -14 -31 -43v-8l-2 -6q0 -8 6 -16l29 -64q14 -25 39 -24q12 0 32 10q29 20 52 20q2 -2 2 -8v-6q-2 -8 -2 -12l-238 -1344q0 -51 43 -51h152q53 0 59 51l82 455q23 141 96.5 233t190.5 92q61 0 91.5 -33.5t30.5 -95.5q0 -23 -6 -53l-2 -14l-75 -412v-8q-8 -43 -9 -76 q0 -74 40 -112.5t126 -38.5q53 0 116.5 25.5t125.5 66.5z" />
<glyph unicode="i" horiz-adv-x="507" d="M590 127l-35 82q-16 27 -37 27q-6 0 -20 -7q-8 -2 -13 -4q-8 -8 -24.5 -15t-24.5 -7q0 4 4 24l107 598l2 6q4 25 4 50q0 70 -39 111.5t-121 41.5q-47 0 -106.5 -22.5t-114.5 -59.5h2q-23 -12 -31 -43v-6l-2 -6q0 -10 9 -18l24 -64q14 -25 39 -24q12 0 33 10q29 20 49 20 q2 0 2 -4q0 -6 -4 -22l-103 -574l-2 -8q-8 -41 -8 -76q0 -74 38 -111.5t122 -37.5q51 0 112.5 25.5t120.5 66.5zM641 1348q0 4 2 14v12q0 55 -36 93t-91 38q-63 0 -116.5 -47t-63.5 -110q0 -6 -2 -17v-16q0 -55 33.5 -90t91.5 -35q68 0 119 44t63 114z" />
<glyph unicode="j" horiz-adv-x="475" d="M377 -113l168 944q4 29 4 54q0 72 -37 113.5t-119 41.5q-45 0 -105.5 -22.5t-113.5 -59.5h2q-27 -14 -31 -43v-8l-2 -6q0 -8 7 -16l26 -64l-2 6q6 -31 41 -30q18 0 35 12l-6 -2q29 18 51 18q2 0 2 -4q0 -6 -4 -22l-158 -895q-16 -88 -40.5 -128t-88.5 -40q-35 0 -59.5 9 t-46.5 24l-4 2l8 -4q-8 10 -31 10q-20 0 -37.5 -14.5t-21.5 -36.5l-21 -117q0 -20 14 -39q8 -10 19 -10q43 -20 79 -30.5t93 -10.5q166 0 257 94t122 274zM635 1356q0 4 2 14v14q0 57 -37 97.5t-94 40.5q-66 0 -121 -49.5t-66 -116.5q-4 -18 -4 -35q0 -59 37 -94t97 -35 q70 0 121 46t65 118zM-168 -440l4 -2h2l-12 2h6z" />
<glyph unicode="k" horiz-adv-x="1026" d="M1159 160l-41 76v-3q-8 23 -35 23q-6 0 -20 -6q-8 -2 -12 -4q-14 -10 -29.5 -19.5t-24.5 -9.5q-14 0 -24 29l-146 411l334 201q8 8 15 31q0 23 -5 37l-49 98q-8 23 -39 23q-6 0 -12 -1.5t-18 -7.5l-555 -348l131 740q4 27 4 49q0 70 -39 112.5t-125 42.5 q-49 0 -111.5 -22.5t-117.5 -59.5h2q-27 -14 -31 -43v-8l-2 -6q0 -8 6 -16l29 -64q14 -25 39 -24q12 0 32 10q29 20 52 20q2 -2 2 -8v-6q-2 -8 -2 -12l-238 -1344q0 -51 43 -51h154q53 0 59 51l68 377l135 82l125 -381q23 -66 66.5 -97.5t103.5 -31.5q80 0 146.5 31.5 t119.5 74.5z" />
<glyph unicode="l" horiz-adv-x="479" d="M555 127l-35 82q-16 27 -39 27q-16 0 -30 -11q-16 -10 -30.5 -16t-21.5 -6q0 4 4 26l211 1196q4 29 4 54q0 72 -37.5 113.5t-119.5 41.5q-47 0 -107.5 -22.5t-111.5 -59.5h2q-27 -14 -31 -43v-8l-2 -6q0 -8 6 -16l-2 8l27 -72q14 -25 41 -24q18 0 34 12l-4 -2 q29 20 49 20q2 0 3 -4q0 -6 -5 -22l-206 -1172q-8 -49 -9 -84q0 -76 37 -113.5t121 -37.5q53 0 113.5 24.5t120.5 67.5z" />
<glyph unicode="m" horiz-adv-x="1744" d="M1833 125l-41 84q-14 25 -37 24q-10 0 -33 -10l-6 -2q-12 -8 -27.5 -14t-21.5 -6l82 467q10 57 10 104q0 131 -78.5 201.5t-246.5 70.5q-94 0 -178.5 -35.5t-145.5 -101.5q-33 66 -102.5 101.5t-178.5 35.5q-82 0 -155.5 -28.5t-130.5 -75.5q-14 39 -49 60.5t-95 21.5 q-51 0 -110.5 -22.5t-116.5 -59.5h2q-25 -12 -31 -41q0 -23 7 -31l24 -63q14 -25 41 -25q16 0 33 11q33 20 53 20q4 0 4 -8l-2 -6v-13l-131 -733q0 -51 43 -51h154q53 0 59 51l80 449q25 141 90.5 230t177.5 89q55 0 80 -32.5t25 -92.5q0 -39 -11 -92l-98 -551q0 -51 43 -51 h160q53 0 59 51l80 449q25 141 89.5 230t176.5 89q57 0 83 -29.5t26 -87.5q0 -31 -8 -71l-74 -420q-6 -37 -6 -70q0 -74 40 -113.5t128 -39.5q53 0 117.5 25.5t125.5 66.5z" />
<glyph unicode="n" horiz-adv-x="1161" d="M1251 125l-39 84q-14 25 -38 24q-10 0 -33 -10l-6 -2q-14 -8 -27.5 -14t-20.5 -6l5 24l75 441q10 51 11 96q0 135 -83 208.5t-253 73.5q-84 0 -160 -29.5t-139 -80.5q-12 41 -48 64.5t-100 23.5q-49 0 -107.5 -22.5t-115.5 -59.5h2q-25 -12 -31 -41q0 -23 7 -31l24 -63 q14 -25 41 -25q23 0 35 13l-4 -2q33 20 53 20q4 0 4 -8l-2 -6v-13l-131 -733q0 -51 41 -51h154q51 0 57 51l80 449q23 137 96.5 228t189.5 91q61 0 91 -33.5t30 -95.5q0 -29 -6 -63l-74 -416q-6 -39 -6 -72q0 -74 39 -112.5t127 -38.5q53 0 116.5 25.5t125.5 66.5z" />
<glyph unicode="o" horiz-adv-x="1062" d="M1124 510q12 66 13 125q0 190 -109.5 299.5t-310.5 109.5q-233 0 -394 -146t-202 -388q-10 -63 -10 -125q0 -188 108.5 -299t308.5 -111q117 0 217.5 39t178.5 109q159 147 200 387zM862 510q-23 -133 -100.5 -225t-194.5 -92q-96 0 -144 64.5t-48 166.5q0 41 8 86 q23 135 100.5 227t194.5 92q96 0 144 -64.5t48 -168.5q0 -41 -8 -86z" />
<glyph unicode="p" horiz-adv-x="1196" d="M1257 516q12 74 13 139q0 186 -100.5 294t-295.5 108q-84 0 -166.5 -30t-156.5 -85q-27 92 -154 92q-49 0 -107.5 -22.5t-115.5 -59.5h2q-23 -12 -31 -43v-6l-2 -6q0 -10 9 -18l24 -64q14 -25 41 -24q23 0 35 12l-4 -2q33 20 53 20q4 -2 4 -6q0 -2 -2 -6q-2 -10 -2 -16 l-211 -1199v-6q-2 -4 -2 -6q0 -39 43 -39h154q49 0 59 51l82 467q98 -86 274 -86q104 0 197.5 40t167.5 114t123 172t69 215zM989 516q-23 -137 -96.5 -226t-185.5 -89q-100 0 -153.5 67.5t-53.5 173.5q0 37 6 74q25 133 112 225.5t205 92.5q90 0 133 -58.5t43 -159.5 q0 -47 -10 -100z" />
<glyph unicode="q" horiz-adv-x="1161" d="M948 -457q49 0 60 51l245 1389q0 51 -43 51h-151q-53 0 -60 -51l-2 -10q-100 84 -274 84q-109 0 -204 -40t-167.5 -113t-123 -172t-70.5 -216q-12 -72 -13 -137q0 -186 101.5 -295t300.5 -109q72 0 148.5 24t140.5 64l-82 -469v-6l-2 -6q0 -39 45 -39h151zM915 516 q-23 -131 -111.5 -223t-209.5 -92q-92 0 -135 59t-43 158q0 47 8 98q25 139 96.5 228.5t186.5 89.5q104 0 159.5 -68t55.5 -174q-1 -37 -7 -76z" />
<glyph unicode="r" horiz-adv-x="770" d="M995 936q0 37 -24 45l6 -4q-33 25 -74 40t-106 15q-139 0 -260 -117q-18 104 -144 105q-49 0 -109.5 -23.5t-123.5 -62.5q-8 -8 -17 -35v-8q-2 -4 -2 -6q0 -10 9 -19l24 -61v6q4 -31 39 -31q16 0 33 11q27 18 51 18q2 0 2 -4q0 -6 -4 -23l-129 -731q0 -51 43 -51h149 q51 0 58 51l67 375q16 88 52 170t83 139q57 68 130 68q31 0 54 -10.5t38 -20.5q16 -10 30 -10q37 0 54 39l-2 -4l59 112q12 13 14 27z" />
<glyph unicode="s" horiz-adv-x="798" d="M860 315q6 37 6 70q0 106 -69.5 161.5t-210.5 92.5q-84 20 -128 44t-44 58q16 90 166 90q57 0 102 -12t92 -33q0 -6 8 -6q8 -8 31 -8q33 0 51 27l58 92q8 8 12 29q0 37 -21 45l5 -2q-72 43 -150 62t-152 19q-168 0 -295.5 -83.5t-156.5 -237.5q-6 -33 -6 -59 q0 -57 23.5 -98.5t63.5 -69t90 -47t126 -39.5v2q78 -20 113.5 -42t35.5 -59q0 -2 -2 -6v-8q-10 -51 -61 -76.5t-115 -25.5q-84 0 -149.5 24.5t-118.5 61.5l-6 4q-23 10 -29 10q-20 0 -36.5 -14.5t-20.5 -34.5l-25 -140q0 -12 7 -27.5t18 -17.5q63 -35 143 -60.5t193 -25.5 q76 0 148.5 19.5t136 60.5t107.5 106.5t60 153.5zM831 829l-45 -38l-12 18q2 10 8 25.5t21 15.5q12 -1 28 -21z" />
<glyph unicode="t" horiz-adv-x="630" d="M707 82l20 119v6l2 6q0 39 -41 39q-14 0 -39 -12q-23 -12 -62.5 -23.5t-74.5 -11.5q-57 0 -57 53q0 20 6 53l90 508h197q49 0 59 51l18 109v6l2 6q0 37 -43 37h-196l37 215q0 49 -41 49h-150q-23 0 -39 -14t-20 -35l-37 -215h-121q-49 0 -59 -49l-19 -109v-6q-2 -4 -2 -6 q0 -39 43 -39h121l-94 -530q-8 -53 -8 -94q0 -111 61.5 -160t183.5 -49q55 0 122 19.5t116 41.5z" />
<glyph unicode="u" horiz-adv-x="1159" d="M1239 139l-37 80q-14 25 -39 25q-8 0 -24 -6l-4 -2l-5 -3q-4 -4 -6 -4t-8 -4q-29 -12 -39 -12l135 758q0 49 -43 49h-151q-53 0 -60 -49l-79 -449q-23 -137 -96.5 -228t-190.5 -91q-61 0 -90 33.5t-29 95.5q0 29 6 63l76 426q4 25 4 47q0 68 -41 110t-127 42 q-49 0 -110.5 -22.5t-116.5 -57.5h2q-25 -12 -31 -41q0 -23 6 -31l25 -63q14 -25 41 -25q23 0 35 13l-4 -2q33 20 53 20q2 0 2 -4v-4q-2 -6 -2 -10l-76 -439q-10 -53 -10 -98q0 -133 83 -207t253 -74q84 0 157.5 30t135.5 79q31 -84 145 -84q55 0 118.5 24.5t123.5 65.5z " />
<glyph unicode="v" horiz-adv-x="1028" d="M1221 918q0 2 2 8l2 6q0 27 -25 47l-113 43q-8 8 -24 8q-39 0 -53 -35l2 4l-385 -655l-84 455v2q-16 109 -51 164t-127 55q-109 0 -228 -82h2q-27 -14 -30 -43v-8l-3 -6q0 -8 7 -17l26 -61v6q4 -31 39 -31q12 0 27 6q33 18 55 19q4 0 16 -37q4 -18 7 -25v2l143 -710 q0 -12 13.5 -22.5t27.5 -10.5h170q12 0 28.5 10t24.5 23v-2zM541 805l2 -6z" />
<glyph unicode="w" horiz-adv-x="1566" d="M1761 924l2 6v4q0 33 -26 47l-125 47l-4 2h-6q-33 0 -54 -35l-350 -633l-55 422v4q-10 59 -19.5 96.5t-28 69t-52 49t-87.5 17.5q-55 0 -113.5 -22.5t-123.5 -65.5q-12 -12 -19 -35q0 -16 5 -29l2 -4l28 -59q14 -25 39 -25q16 0 33 11q29 16 47 16q12 0 20.5 -10.5 t18.5 -46.5l-281 -422l-61 458q-8 55 -17.5 94.5t-29 71t-53 50t-84.5 18.5q-102 0 -240 -88q-12 -12 -18 -35q0 -10 2 -16v-4l36 -72q14 -25 35 -25q16 0 33 11q18 12 45 12q23 0 31 -58l104 -710l-2 2q0 -14 14.5 -25.5t28.5 -11.5h172q10 0 26.5 10t24.5 21l273 405 l59 -401l-2 2q0 -14 14.5 -25.5t30.5 -11.5h172q14 0 29.5 10t24.5 23z" />
<glyph unicode="x" horiz-adv-x="989" d="M1069 168l-39 76v-2q-10 23 -37 22q-23 0 -37 -12h2q-33 -23 -55 -23q-18 0 -41 52l-114 241l374 348v-2q18 14 21 37q0 18 -8 33l-2 2l-70 92q-2 0 -6 2q-18 8 -25 8q-10 0 -28 -8q-2 0 -7 -2l-340 -317l-90 190l-2 4q-27 53 -58.5 83t-96.5 30q-57 0 -120 -32t-122 -81 q-14 -12 -18 -37v-4l-3 -6q0 -6 5 -20l36 -64v2q12 -23 37 -22q23 0 37 12l-4 -2q35 25 57 25q18 0 39 -48l101 -217l-408 -378v2q-18 -14 -20 -37q0 -27 10 -37h2l63 -88q10 -12 35 -13q25 0 39 13l369 344l102 -219q23 -51 57.5 -83t104.5 -32q57 0 120.5 34t129.5 87z " />
<glyph unicode="y" horiz-adv-x="1114" d="M1049 86l159 897q0 51 -43 51h-151q-51 0 -58 -51l-84 -469q-27 -135 -98.5 -222t-181.5 -87q-61 0 -91 34.5t-30 98.5q0 29 6 61l78 432q4 25 4 48q0 70 -41 112.5t-125 42.5q-49 0 -111.5 -22.5t-115.5 -59.5h2q-23 -12 -31 -43v-6l-2 -6q0 -10 8 -18l25 -64 q14 -25 39 -24q12 0 33 10q33 20 53 20v-4q-2 -8 -2 -16l-78 -443q-8 -51 -8 -98q0 -135 82 -210t250 -75q72 0 139 25t127 66q-27 -154 -98.5 -237t-223.5 -83q-82 0 -145.5 16.5t-114.5 42.5l2 -2q-10 6 -22 7q-47 0 -58 -50l-22 -131q0 -39 22 -47h-2q59 -27 136 -43 t176 -16q252 0 399.5 143.5t196.5 419.5z" />
<glyph unicode="z" horiz-adv-x="886" d="M952 328l-100 10h-6q-37 0 -55 -39q-29 -74 -91 -74q-31 0 -75 13h-4q-33 12 -69 18t-89 6q-14 0 -25 -2l609 596l20 115q0 49 -43 49h-735q-20 0 -36.5 -14.5t-21.5 -34.5l-22 -125q0 -49 41 -49h428l-649 -637l-21 -117v-6l-2 -6q0 -39 41 -39h14q57 14 131 23.5 t146 9.5q47 0 137 -21q10 0 14 -2q78 -18 140 -18q127 0 223 78.5t125 226.5z" />
<glyph unicode="{" horiz-adv-x="602" d="M518 -287q20 0 37.5 14.5t22.5 36.5l20 125v7l2 4q0 39 -41 39h-102q-33 0 -33 51q0 23 6 53l55 311q6 39 7 76q0 63 -18.5 109.5t-49.5 76.5q53 39 94 102.5t57 153.5l56 318q10 47 24.5 74.5t38.5 27.5h103q20 0 37.5 14.5t21.5 36.5l21 125v7l2 4q0 39 -41 39h-133 q-94 0 -187.5 -83t-116.5 -218l-55 -316q-14 -78 -58 -127t-89 -49q-20 0 -37 -14.5t-21 -34.5l-20 -121v-6l-2 -6q0 -39 41 -39q37 0 62.5 -34t25.5 -91q0 -25 -4 -51l-56 -314q-6 -37 -6 -69q0 -106 59.5 -169t143.5 -63h133z" />
<glyph unicode="|" horiz-adv-x="360" d="M244 -37q49 0 55 51l262 1485v8l2 4q0 37 -41 37h-106q-45 0 -56 -49l-262 -1485q0 -51 39 -51h107z" />
<glyph unicode="}" horiz-adv-x="602" d="M715 543l22 133q0 49 -41 49q-37 0 -61.5 34t-24.5 91q0 25 4 51l56 316q6 33 6 65q0 109 -61.5 172.5t-141.5 63.5h-133q-20 0 -37.5 -14.5t-21.5 -35.5l-21 -125v-6l-2 -6q0 -39 41 -39h102q33 0 33 -51q0 -20 -6 -51l-55 -318q-6 -39 -6 -75q0 -61 18 -105.5t47 -75.5 q-53 -39 -93 -103t-56 -159l-56 -311q-8 -47 -23.5 -75.5t-39.5 -28.5h-103q-20 0 -37.5 -14.5t-21.5 -35.5l-20 -125v-6l-2 -6q0 -39 40 -39h134q96 0 187 82t116 219l55 314q14 80 60 128t98 48z" />
<glyph unicode="~" horiz-adv-x="1320" d="M1307 676l-82 69q-14 8 -27 9q-27 0 -55 -31q-2 -2 -2 -4q0 4 4 8q-8 -4 -12 -14q-27 -31 -53.5 -48.5t-65.5 -17.5t-72 10.5t-78 30.5l-20 10q-2 2 -13 7q-14 8 -16 8l2 -2q-2 2 -6 4t-8 2h2l-14 6q-57 23 -96.5 34t-86.5 11q-98 0 -170.5 -47t-158.5 -143l-5 -5 q-8 -10 -12 -24q0 -31 17 -41l-3 2l74 -61q14 -10 29 -11q31 0 49 31q2 2 2 4l2 2q0 -2 -4 -6h2l6 6q33 35 58.5 52.5t60.5 17.5q37 0 69.5 -11.5t86.5 -35.5l6 -2q6 -2 14 -7l19 -10h-2l8 -4q63 -27 106 -40t96 -13q104 0 180 51t169 154v49zM426 463q2 0 2 2l2 2h-2 q0 -4 -2 -4z" />
<glyph unicode="&#xa1;" horiz-adv-x="497" d="M260 -457q20 0 36.5 14.5t20.5 36.5l158 947q0 20 -12 35.5t-29 15.5h-127q-18 0 -34.5 -16.5t-20.5 -34.5l-178 -947v-6l-2 -6q0 -39 41 -39h147zM575 887q0 4 3 16v15q0 59 -36 99t-89 40q-61 0 -116.5 -51.5t-68.5 -118.5q0 -6 -2 -17v-14q0 -59 36 -99t91 -40 q63 0 116.5 50t65.5 120z" />
<glyph unicode="&#xa2;" horiz-adv-x="1107" d="M1202 1169q0 41 -26 50l4 -2q-43 23 -98.5 41t-125.5 24l31 170v6l2 6q0 39 -45 39h-100q-47 0 -58 -51l-32 -182q-180 -45 -305 -183.5t-160 -330.5q-12 -66 -13 -125q0 -154 76 -256.5t219 -136.5l-32 -189q0 -51 41 -51h100q53 0 59 51l33 178q66 6 128.5 24.5 t113.5 39.5q10 4 22.5 20.5t14.5 26.5l22 129v6l2 6q0 39 -41 39q-12 0 -26 -6q-55 -29 -103.5 -43t-93.5 -20l107 608q76 -10 137 -39q8 -8 26 -8q37 0 54 34l-2 -4l57 103q6 6 10 22q2 2 2 4zM545 756q16 88 58 158.5t108 107.5l-95 -535q-78 59 -77 191q0 37 6 78z" />
<glyph unicode="&#xa3;" horiz-adv-x="1107" d="M1149 336l-107 16h-8q-39 0 -53 -37h2q-37 -78 -121 -77q-35 0 -112 20l6 -4q-2 2 -6 2q-6 0 -9 2q-43 12 -79.5 19.5t-79.5 7.5q-20 0 -70 -4q80 137 106 286l5 29q2 16 4 29v-2l2 41h299q51 0 61 51l21 123v6l2 6q0 39 -43 39h-314l15 110v5l2 6v6v4l2 18 q23 125 84 196t174 71q74 0 129 -20.5t121 -61.5l-6 4q8 -10 28 -10q27 0 47 22l76 90l4 6q14 20 15 29v6q2 4 2 6q0 14 -9 23q-78 63 -161.5 100t-204.5 37q-92 0 -180 -27.5t-165 -86t-131.5 -147.5t-74.5 -206l-6 -35l-19 -145h-168q-51 0 -61 -51l-21 -123v-6l-2 -7 q0 -39 43 -38h181l-7 -60l-12 -65q0 -4 -2 -25q-4 -23 -4 -27q-10 -59 -27.5 -104t-48.5 -80q-31 -37 -68.5 -58.5t-103.5 -43.5q-12 -6 -26.5 -19.5t-16.5 -27.5l-18 -111v-6l-2 -6q0 -39 41 -39h8q113 31 183.5 44t156.5 13q72 0 182 -33q109 -33 176 -32q147 0 257 83 t139 236z" />
<glyph unicode="&#xa5;" horiz-adv-x="1126" d="M1360 1292q51 0 61 51l21 117q0 51 -43 51h-187q-33 0 -47 -26l-401 -576l-221 576q-4 8 -17.5 17t-23.5 9h-203q-20 0 -37.5 -14t-19.5 -37l-21 -117v-6l-2 -6q0 -39 41 -39h68l188 -467h-166q-47 0 -57 -49l-19 -106v-6l-2 -7q0 -39 41 -39h269l-11 -59h-268 q-20 0 -37.5 -14.5t-19.5 -36.5l-19 -105v-6l-2 -6q0 -39 41 -39h269l-23 -133h-68q-51 0 -61 -51l-21 -117q0 -51 44 -51h391q53 0 59 51l21 117v6l2 6q0 39 -43 39h-68l23 133h270q51 0 61 51l19 105q0 51 -43 51h-271l11 59h270q51 0 61 52l19 106v6l2 6q0 37 -45 37 h-182l323 467h74z" />
<glyph unicode="&#xa6;" horiz-adv-x="360" d="M418 952q49 0 55 52l88 495v8l2 4q0 37 -41 37h-106q-45 0 -56 -49l-88 -495q0 -51 39 -52h107zM244 -37q49 0 55 51l88 496v8l2 4q0 37 -41 37h-106q-45 0 -56 -49l-88 -496q0 -51 39 -51h107z" />
<glyph unicode="&#xa7;" horiz-adv-x="1083" d="M1110 623q6 41 6 75q0 98 -49 165t-147 124l-222 135q-33 20 -51 41t-18 47v7v6q10 57 60 84.5t128 27.5q121 0 260 -71q8 -10 29 -11q39 0 55 35l-2 -4l66 102l-2 -2q10 16 10 23q0 25 -19 41q-72 45 -158.5 75.5t-205.5 30.5q-172 0 -308 -86t-165 -245q-6 -43 -6 -78 q0 -63 23.5 -110.5t76.5 -88.5q-201 -111 -233 -295q-6 -37 -7 -71q0 -98 48.5 -163t136.5 -118l215 -133q47 -29 69.5 -53.5t22.5 -57.5q0 -2 -2 -8v-10q-8 -51 -62.5 -77t-134.5 -26q-88 0 -158.5 23t-156.5 68q-8 6 -25 6q-20 0 -37.5 -14.5t-21.5 -34.5l-25 -142 q0 -14 6.5 -28.5t16.5 -18.5q94 -43 173 -62.5t202 -19.5q82 0 161.5 22.5t145 66.5t111 107.5t57.5 141.5q8 41 8 74q0 63 -26.5 111.5t-82.5 93.5q205 111 238 295zM858 610q-10 -57 -55 -97t-117 -60l-49 28q-82 51 -113.5 83t-31.5 77v10q2 10 2 15q10 55 54 95t109 64 l58 -32q82 -49 113.5 -80t31.5 -76v-12q-2 -11 -2 -15z" />
<glyph unicode="&#xa8;" horiz-adv-x="1005" d="M1083 1231v10q2 8 2 10q0 51 -36.5 86t-94.5 35q-66 0 -117 -42t-61 -99q0 -4 -2 -12v-13q0 -49 37 -82.5t94 -33.5q63 0 115.5 41t62.5 100zM702 1231v10q2 8 3 10q0 51 -37 86t-95 35q-63 0 -115 -42t-63 -99v-12q-2 -8 -2 -11q0 -51 37 -84.5t94 -33.5q63 0 115.5 41 t62.5 100z" />
<glyph unicode="&#xa9;" horiz-adv-x="1607" d="M1749 756q12 72 12 143q0 141 -49 261t-139 207t-212 134t-265 47q-160 0 -314.5 -59t-283.5 -167t-217 -253t-117 -313q-12 -72 -12 -144q0 -139 49 -259t139 -207t212 -135t265 -48q160 0 314.5 59.5t283.5 168t217 254t117 311.5zM1516 756q-20 -121 -82 -227.5 t-154 -186.5t-201.5 -124t-224.5 -44q-100 0 -187 35t-149.5 98.5t-96.5 150.5t-34 189q0 53 10 109q20 121 82 228.5t154 187t201.5 123.5t224.5 44q102 0 188 -34.5t148.5 -99t96.5 -151.5t34 -188q0 -55 -10 -110zM1352 1159v6l2 4q0 31 -29 39l4 -2q-55 27 -119.5 42.5 t-146.5 15.5q-106 0 -202.5 -37t-174.5 -104.5t-130 -161t-73 -205.5q-10 -57 -10 -109q0 -182 110.5 -289.5t299.5 -107.5q86 0 157.5 16.5t126.5 40.5q10 4 22.5 20.5t16.5 26.5l21 117q0 51 -39 51q-12 0 -27 -6q-57 -27 -108.5 -40t-116.5 -13q-94 0 -151.5 56 t-57.5 159q0 37 6 76q23 129 101.5 213t197.5 84q43 0 83 -7.5t89 -27.5q10 -6 29 -6q39 0 55 34l-2 -4l53 93q6 8 13 22v4z" />
<glyph unicode="&#xaa;" horiz-adv-x="720" d="M907 948l-24 58q-16 16 -37 16h-12l36 213q6 33 7 63q0 94 -62.5 144.5t-189.5 50.5q-123 0 -219 -45q-33 -8 -39 -43v-6q-2 -6 -2 -8v-9q2 -4 2 -6l12 -61l-2 2q2 -35 41 -35q-78 -27 -127 -84t-62 -135q-4 -29 -4 -53q0 -88 59.5 -136.5t172.5 -48.5q102 0 182 49 q29 -37 94 -36q39 0 81 17t81 48zM629 1065q-4 -29 -33 -46.5t-72 -17.5q-80 0 -80 52v4v6q10 63 97 63q47 0 68.5 -14t21.5 -37q0 -2 -2 -4v-6zM567 1309q57 0 82 -25q-53 16 -106 16q-41 0 -86 -10q47 19 110 19z" />
<glyph unicode="&#xab;" horiz-adv-x="985" d="M934 129q27 16 33 41q0 16 -6 35l-152 315l262 316q16 25 19 34q0 25 -19 39l-88 68q-20 12 -33 12q-10 0 -23.5 -6t-21.5 -22l-352 -418q-6 -6 -10 -23q0 -29 6 -35l-2 7l203 -412q2 -14 12 -21.5t22 -7.5t37 12zM571 129q27 16 33 41q0 16 -6 35l-152 315l263 316 q16 25 18 34q0 25 -18 39l-88 68q-20 12 -33 12q-20 0 -41 -22l-357 -424q-6 -6 -10 -23q0 -29 6 -35l-2 7l205 -418q12 -23 33 -23q12 0 37 12z" />
<glyph unicode="&#xac;" horiz-adv-x="1124" d="M1137 352q23 0 40 14.5t21 34.5l76 441v6l2 6q0 37 -43 37h-1028q-51 0 -62 -49l-22 -135v-7l-2 -6q0 -39 43 -39h833l-43 -254v-6q-2 -4 -2 -6q0 -37 41 -37h146z" />
<glyph unicode="&#xad;" horiz-adv-x="641" d="M629 328q51 0 57 47l23 123q0 47 -41 47h-463q-53 0 -60 -47l-22 -123q0 -47 43 -47h463z" />
<glyph unicode="&#xae;" horiz-adv-x="1607" d="M1749 756q12 72 12 143q0 141 -49 261t-139 207t-212 134t-265 47q-160 0 -314.5 -59t-283.5 -167t-217 -253t-117 -313q-12 -72 -12 -144q0 -139 49 -259t139 -207t212 -135t265 -48q160 0 314.5 59.5t283.5 168t217 254t117 311.5zM1059 1339q102 0 188 -34.5 t148.5 -99t96.5 -151.5t34 -188q0 -55 -10 -110q-16 -96 -60.5 -185.5t-109.5 -164.5v6v6l2 6q0 39 -43 39h-41q-16 0 -22.5 17.5t-10.5 58.5v6v4q-6 53 -14.5 91t-30.5 69q47 25 74 47q96 80 116 196q6 35 6 64q0 227 -315 227h-336q154 96 328 96zM397 756 q20 111 74.5 212t136.5 179l-8 -43v-6l-2 -6q0 -39 45 -39h31l-105 -590h-30q-51 0 -62 -51l-8 -47q-82 121 -82 280q0 54 10 111zM1130 272h56q-156 -98 -332 -98q-178 0 -299 98h236q51 0 61 52l14 88v6l2 6q0 39 -43 39h-28l34 199h87q39 -23 53 -70t20 -119v2v-2 q8 -102 32.5 -151.5t106.5 -49.5zM1133 958q-18 -102 -148 -102h-119l33 193h119q117 0 117 -72q0 -2 -2 -8v-11z" />
<glyph unicode="&#xaf;" horiz-adv-x="1009" d="M1006 907q53 0 59 47l16 97v6l2 4q0 35 -45 35h-645q-47 0 -57 -45l-17 -97q0 -47 41 -47h646z" />
<glyph unicode="&#xb0;" horiz-adv-x="776" d="M950 1245q6 31 6 60q0 115 -76.5 189.5t-195.5 74.5q-66 0 -129 -24.5t-116.5 -68.5t-88.5 -103.5t-47 -127.5q-4 -29 -4 -57q0 -115 76 -190.5t194 -75.5q66 0 130.5 24.5t116.5 69.5t87 103t47 126zM735 1245q-8 -49 -46 -83t-83 -34q-39 0 -64.5 28t-25.5 69q0 4 2 10 v10q10 51 47 85t82 34q39 0 64.5 -26.5t25.5 -67.5v-13q-2 -8 -2 -12z" />
<glyph unicode="&#xb1;" horiz-adv-x="1124" d="M1096 0q53 0 59 51l27 142q0 51 -43 51h-398q6 10 11 28l57 326h391q23 0 40 14.5t22 34.5l24 144v6l2 6q0 39 -45 39h-391l57 323v9q2 2 2 6q0 37 -41 37h-147q-20 0 -37.5 -14.5t-21.5 -37.5l-58 -323h-391q-49 0 -59 -51l-25 -144v-6l-2 -4q0 -39 43 -39h391l-57 -326 q0 -10 2 -22v-6h-397q-53 0 -60 -51l-26 -142q0 -51 43 -51h1028z" />
<glyph unicode="&#xb2;" horiz-adv-x="1165" d="M1053 922l-92 12h-9q-18 0 -32.5 -12.5t-20.5 -28.5q-8 -18 -33 -19q-14 0 -22 3l2 2q-2 2 -19 6q-16 4 -20 4q141 90 216 168t91 174q6 31 6 59q0 100 -71.5 155.5t-204.5 55.5q-90 0 -179.5 -39t-148.5 -90h2q-18 -12 -22 -35q0 -20 4 -30l45 -76v2q12 -23 35 -23 q25 0 38 15h-2q39 31 83 49t87 18q51 0 72 -15t21 -38q0 -2 -2 -6v-6q-8 -43 -50.5 -84t-152.5 -117l-277 -190l4 2q-8 -4 -19 -19.5t-13 -23.5l-15 -88q0 -51 37 -52h8q6 2 19 2q12 0 20 2q37 4 54 7h4q4 2 6 2q68 10 108 10q45 0 103 -10h-2q4 0 12 -2q6 0 12 -2 q31 -6 78 -7q104 0 175 53.5t93 178.5z" />
<glyph unicode="&#xb3;" horiz-adv-x="1161" d="M1079 920q4 23 4 43q0 86 -59 141q76 61 90 153q4 27 4 50q0 100 -75.5 148t-196.5 48q-84 0 -159 -28.5t-155 -73.5q-12 -8 -21 -20.5t-11 -22.5q0 -23 6 -33l35 -72q12 -23 39 -22q20 0 32 10q0 2 2 2h-2q55 27 96.5 41t86.5 14q78 0 77 -51q-4 -29 -35.5 -41 t-74.5 -12h-51q-51 0 -58 -49l-18 -105v-6l-2 -4q0 -39 41 -39l55 2h10q98 0 99 -57q0 -2 -2 -4v-6q-6 -33 -37 -52.5t-76 -19.5q-68 0 -118 14.5t-111 51.5l8 -5q-8 10 -31 11q-20 0 -37.5 -14.5t-21.5 -34.5l-19 -115q0 -14 6.5 -28.5t16.5 -16.5q66 -35 127 -50.5 t143 -15.5q139 0 254.5 70t138.5 199z" />
<glyph unicode="&#xb4;" horiz-adv-x="983" d="M1004 1378l-5 -4q14 12 19 35q0 47 -41 47h-156q-8 0 -22.5 -7t-22.5 -15l4 2l-329 -355l2 4q-14 -12 -19 -32v-2q0 -49 41 -50h133q8 0 22.5 7.5t20.5 17.5v-4z" />
<glyph unicode="&#xb5;" horiz-adv-x="1159" d="M1239 141l-37 88q-16 16 -39 17q-8 0 -24 -6l-4 -2l-5 -2q-4 -4 -6 -5l-10 -4q-27 -12 -35 -12l135 768q0 49 -43 49h-151q-53 0 -59 -49l-82 -455q-23 -139 -94.5 -231t-186.5 -92q-61 0 -91 35.5t-30 99.5q0 27 6 59l76 426q6 29 6 54q0 70 -41 111.5t-127 41.5 q-49 0 -110.5 -22.5t-116.5 -57.5h2q-23 -12 -31 -43v-6l-2 -6q0 -10 8 -18l25 -64q14 -25 41 -24q12 0 33 10q29 20 51 20q2 0 2 -4q0 -6 -4 -24l-213 -1209q0 -51 41 -51h145q53 0 60 51l78 439q70 -47 176 -48q72 0 136 29t118 76q37 -80 143 -80q53 0 116.5 25.5 t125.5 66.5z" />
<glyph unicode="&#xb6;" horiz-adv-x="1271" d="M1276 -147l-31 90q-14 31 -41 30q-14 0 -39 -12q-12 -8 -27.5 -14t-23.5 -6q-2 2 -2 6v6q2 10 2 14l236 1336h67q53 0 60 49l22 118q0 51 -43 52h-545q-139 0 -260 -48.5t-215 -136.5t-156.5 -210.5t-89.5 -270.5q-12 -68 -12 -133q0 -193 98.5 -325t262.5 -158l-86 -486 q-8 -51 -9 -90q0 -72 37 -107.5t123 -35.5q55 0 112.5 22.5t114.5 61.5h-2q23 12 31 43v6l2 6q0 10 -8 18l-25 70q-14 31 -41 31q-8 0 -26 -8q-2 0 -6 -2q-12 -8 -28.5 -15.5t-27.5 -7.5q-4 0 -4 8v6q2 8 2 13l271 1523h133l-238 -1347q-8 -51 -8 -90q0 -72 37 -108t123 -36 q55 0 117.5 24.5t123.5 67.5z" />
<glyph unicode="&#xb7;" horiz-adv-x="497" d="M524 590q0 4 2 12v14q0 53 -36.5 90t-92.5 37q-63 0 -116.5 -45t-63.5 -108v-12q-2 -10 -2 -13q0 -53 38 -91t91 -38q61 0 115.5 46.5t64.5 107.5z" />
<glyph unicode="&#x2219;" horiz-adv-x="497" d="M524 590q0 4 2 12v14q0 53 -36.5 90t-92.5 37q-63 0 -116.5 -45t-63.5 -108v-12q-2 -10 -2 -13q0 -53 38 -91t91 -38q61 0 115.5 46.5t64.5 107.5z" />
<glyph unicode="&#xb8;" horiz-adv-x="985" d="M743 -195q0 6 2 19q2 10 3 16q0 66 -44.5 105t-107.5 47l31 28l4 7q10 16 10 24q0 47 -43 47h-84q-8 0 -18.5 -3t-12.5 -5l-174 -178q-12 -20 -14 -31q0 -25 8 -35l35 -39h-2q14 -14 35 -14q18 0 30 10q39 16 74 17q20 0 32.5 -4t12.5 -15q-2 -10 -23.5 -14t-60.5 -4 t-76.5 10t-72.5 25q-8 6 -25 6q-20 0 -36.5 -14.5t-20.5 -34.5l-17 -92q0 -35 27 -48q57 -23 106.5 -33t108.5 -10q121 0 208 51t105 162z" />
<glyph unicode="&#xb9;" d="M850 668q49 0 59 49l17 94q0 49 -41 49h-49l104 590q0 51 -39 51h-14l-244 -59q-16 -4 -29.5 -18.5t-17.5 -30.5l-18 -99q0 -49 38 -49h13l53 12l-70 -397h-51q-20 0 -36.5 -14.5t-20.5 -34.5l-17 -94v-6l-2 -4q0 -39 41 -39h324z" />
<glyph unicode="&#xba;" horiz-adv-x="718" d="M930 1159q6 37 6 72q0 119 -77 190.5t-216 71.5q-160 0 -269.5 -92t-135.5 -242q-6 -37 -7 -72q0 -119 77 -190.5t216 -71.5q160 0 269.5 92t136.5 242zM709 1159q-12 -68 -49 -108.5t-103 -40.5q-53 0 -77.5 27.5t-24.5 76.5q0 20 4 45q12 68 49 110t102 42q53 0 78 -29 t25 -78q0 -20 -4 -45z" />
<glyph unicode="&#xbb;" horiz-adv-x="985" d="M649 492l-2 -7q12 10 17 33v2v23l-205 418q-2 14 -13.5 21t-23.5 7q-8 0 -31 -10l-6 -2l-113 -68q-29 -18 -30 -39q0 -16 6 -34l149 -316l-260 -315q-16 -25 -18 -35v-4v-4q0 -18 16 -33l88 -66l6 -2q18 -10 27 -10q12 0 25.5 7.5t21.5 21.5zM1012 492l-2 -7q12 10 16 33 v2v23l-209 424q-8 23 -33 22q-8 0 -30 -10l-6 -2l-113 -68q-29 -18 -31 -39q0 -16 6 -34l150 -316l-260 -315q-16 -25 -19 -35v-4v-4q0 -18 17 -33l88 -66l6 -2q18 -10 26 -10q25 0 41 23z" />
<glyph unicode="&#xbc;" horiz-adv-x="2277" d="M2138 1423l-4 -4q14 12 18 35v6q2 2 2 6q0 18 -16 29h2l-94 74l4 -2q-12 12 -31 12q-25 0 -37 -12l-1394 -1477l2 4q-14 -12 -19 -33v-2q0 -27 17 -39h-2l90 -73q16 -10 31 -10q20 0 36 12zM2111 223l19 101v6l2 6q0 39 -45 39h-53l73 420v6l2 6q0 39 -43 39h-178 q-8 0 -24.5 -8.5t-22.5 -16.5l2 4l-444 -473l-23 -129q0 -51 43 -51h271q-16 -16 -19 -33l-16 -94v-6l-2 -6q0 -39 43 -39h307q51 0 61 51l17 94q0 25 -10 35q34 12 40 49zM915 684q53 0 60 51l18 96q0 51 -43 52h-57l106 606q0 49 -38 49h-13l-266 -59q-14 -4 -28.5 -19.5 t-18.5 -32.5l-19 -98q0 -51 41 -51h13l59 12l-72 -407h-57q-53 0 -59 -52l-19 -96q0 -51 43 -51h350zM1673 375l156 164l-29 -164h-127z" />
<glyph unicode="&#xbd;" horiz-adv-x="2277" d="M2068 1423l-4 -4q14 12 19 35v6q2 2 2 6q0 18 -17 29h3l-95 74l4 -2q-12 12 -30 12q-25 0 -37 -12l-1395 -1477l2 4q-14 -12 -18 -33v-2q0 -27 16 -39h-2l90 -73q16 -10 31 -10q20 0 37 12zM2095 254l-96 10h-6q-16 0 -32.5 -11t-25.5 -28q-8 -20 -24 -20l-15 2 q-14 4 -18 4h-4l-16 4q-10 2 -19 4q147 96 224 175t94 177q6 31 6 60q0 104 -73 160.5t-212 56.5q-94 0 -184 -40t-154 -91q-18 -14 -20 -37q0 -20 4 -31l45 -78v2q12 -23 37 -22q18 0 39 16q41 31 87 49.5t89 18.5q55 0 74.5 -17.5t19.5 -50.5q-8 -43 -53 -86t-158 -121 l-289 -194l4 2q-8 -4 -18 -19.5t-12 -23.5l-17 -92q0 -51 39 -51h8q10 2 23 2q18 2 22 2l52 6l12 2q78 10 110 10q45 0 107 -10h-4q6 -2 14 -2q6 0 12 -2q35 -6 80 -6q111 0 182.5 54t94.5 179zM915 684q53 0 60 51l18 96q0 51 -43 52h-57l106 606q0 49 -38 49h-13l-266 -59 q-14 -4 -28.5 -19.5t-18.5 -32.5l-19 -98q0 -51 41 -51h13l59 12l-72 -407h-57q-53 0 -59 -52l-19 -96q0 -51 43 -51h350z" />
<glyph unicode="&#xbe;" horiz-adv-x="2281" d="M2142 1423l-4 -4q14 12 19 35v6q2 2 2 6q0 18 -17 29h2l-94 74q-2 2 -8 4q-12 6 -21 6q-25 0 -36 -12l-1397 -1477l2 4q-14 -12 -19 -33v-2q0 -27 17 -39h-2l92 -73q16 -10 31 -10q20 0 36 12zM2116 223l18 101v6l2 6q0 39 -45 39h-53l73 420v6l3 6q0 39 -43 39h-181 q-8 0 -24.5 -8.5t-22.5 -16.5l2 4l-444 -473l-23 -129q0 -51 43 -51h273q-16 -16 -19 -33l-16 -94v-6l-2 -6q0 -39 41 -39h309q51 0 61 51l17 94q0 25 -10 35q35 12 41 49zM1122 942q4 23 4 45q0 90 -63 143q80 66 96 158q4 27 4 47q0 104 -79.5 153.5t-206.5 49.5 q-88 0 -164 -27.5t-162 -74.5q-27 -14 -31 -45v-5q-2 -2 -2 -4q0 -6 4 -20l41 -80l2 2q8 -23 37 -22q10 0 19 2q6 0 16 8l2 2l4 4l-8 -4q55 29 99 43t91 14q84 0 84 -53q-6 -31 -38.5 -43t-82.5 -12h-51q-23 0 -39 -14.5t-20 -34.5l-19 -107v-6l-2 -6q0 -39 43 -39l56 2h12 q47 0 75.5 -15.5t28.5 -44.5q0 -2 -2 -4v-6q-6 -33 -37.5 -53.5t-82.5 -20.5q-72 0 -122 14.5t-116 53.5q-10 6 -23 6q-20 0 -37.5 -14t-21.5 -37l-20 -115q0 -39 22 -47h-2q70 -35 134.5 -51t148.5 -16q145 0 265.5 71.5t143.5 202.5zM1675 375l158 164l-29 -164h-129z" />
<glyph unicode="&#xbf;" horiz-adv-x="952" d="M950 -219l-67 92q-12 16 -35 16t-39 -14q-59 -51 -130 -88t-153 -37q-172 0 -172 131q0 18 4 39q10 61 55.5 113.5t125.5 122.5l30 26q98 86 140.5 153.5t60.5 174.5l16 96v6l2 6q0 39 -40 39h-154q-20 0 -37.5 -14t-21.5 -37l-15 -84q-10 -61 -37.5 -104t-79.5 -84 q-135 -106 -208.5 -198.5t-98.5 -227.5q-8 -43 -8 -84q0 -147 102.5 -225t278.5 -78q143 0 263 61.5t210 145.5zM877 887q0 4 2 14v14q0 59 -40 100.5t-98 41.5q-66 0 -126 -50.5t-72 -119.5q0 -4 -2 -17v-14q0 -59 38.5 -99t102.5 -40q68 0 125.5 50t69.5 120z" />
<glyph unicode="&#xc0;" horiz-adv-x="1351" d="M1331 0q53 0 60 51l20 117v6l2 6q0 39 -43 39h-84l-205 1266l2 -2q-8 37 -43 37h-168q-14 0 -30.5 -11.5t-22.5 -23.5l-684 -1266h-78q-20 0 -37.5 -14.5t-21.5 -36.5l-21 -117q0 -51 41 -51h224q14 0 30.5 11.5t22.5 23.5l242 461h430l69 -461l-2 2q0 -14 14.5 -25.5 t30.5 -11.5h252zM1182 1518h8q18 0 37.5 15t21.5 36l21 117q0 39 -33 49l-598 129h-10q-20 0 -38 -14.5t-22 -37.5l-24 -145v-6q-2 -4 -2 -6q0 -33 32 -39zM872 1128l58 -399h-271z" />
<glyph unicode="&#xc1;" horiz-adv-x="1351" d="M1331 0q53 0 60 51l20 117v6l2 6q0 39 -43 39h-84l-205 1266l2 -2q-8 37 -43 37h-168q-14 0 -30.5 -11.5t-22.5 -23.5l-684 -1266h-78q-20 0 -37.5 -14.5t-21.5 -36.5l-21 -117q0 -51 41 -51h224q14 0 30.5 11.5t22.5 23.5l242 461h430l69 -461l-2 2q0 -14 14.5 -25.5 t30.5 -11.5h252zM1319 1616q43 6 53 51l25 145v7q2 2 2 4q0 41 -43 41h-10l-646 -129q-16 -4 -29.5 -18.5t-17.5 -30.5l-20 -117q0 -51 43 -51h8zM872 1128l58 -399h-271z" />
<glyph unicode="&#xc2;" horiz-adv-x="1351" d="M1331 0q53 0 60 51l22 119q0 49 -43 49h-84l-205 1266l2 -2q-8 37 -43 37h-168q-14 0 -30.5 -11.5t-22.5 -23.5l-684 -1266h-78q-20 0 -36.5 -14.5t-20.5 -34.5l-23 -119q0 -51 41 -51h224q14 0 30.5 11.5t22.5 23.5l242 461h430l69 -461l-2 2q0 -14 14.5 -25.5 t30.5 -11.5h252zM1335 1524h11q51 0 57 49l20 113v4l2 4q0 31 -24 39h2l-369 172l-8 2h-8h-6l-8 -2l-429 -174q-10 -4 -21 -19.5t-13 -25.5l-21 -113q0 -49 41 -49h10l406 133zM872 1128l58 -399h-271z" />
<glyph unicode="&#xc3;" horiz-adv-x="1351" d="M1331 0q53 0 60 51l20 117v6l2 6q0 39 -43 39h-84l-205 1266l2 -2q-8 37 -43 37h-168q-14 0 -30.5 -11.5t-22.5 -23.5l-684 -1266h-78q-20 0 -37.5 -14.5t-21.5 -36.5l-21 -117q0 -51 41 -51h224q14 0 30.5 11.5t22.5 23.5l242 461h430l69 -461l-2 2q0 -14 14.5 -25.5 t30.5 -11.5h252zM1397 1876h-115q-16 0 -34.5 -13.5t-24.5 -27.5q-8 -25 -22.5 -41t-35.5 -16q-33 0 -69.5 9t-100.5 30q-39 12 -75.5 18t-88.5 6q-117 0 -198.5 -81t-112.5 -189v-6v-6l-2 -5q0 -39 41 -38h105q16 0 34.5 13t22.5 32q10 23 25.5 38t39.5 15q47 0 109 -21h43 l41 -2l-45 56l-45 -52q14 -6 26 -8q4 0 7 -2h2l2 -2q8 -4 14 -4q4 -2 10 -2l4 -2q45 -10 83 -17.5t93 -7.5q115 0 191 84t109 199zM872 1128l58 -399h-271z" />
<glyph unicode="&#xc4;" horiz-adv-x="1351" d="M1331 0q53 0 60 51l20 117v6l2 6q0 39 -43 39h-84l-205 1266l2 -2q-8 37 -43 37h-168q-14 0 -30.5 -11.5t-22.5 -23.5l-684 -1266h-78q-20 0 -37.5 -14.5t-21.5 -36.5l-21 -117q0 -51 41 -51h224q14 0 30.5 11.5t22.5 23.5l240 459h430l71 -459l-2 2q0 -14 14.5 -25.5 t30.5 -11.5h252zM891 1675q0 6 2 15v14q0 55 -37 93t-94 38q-66 0 -120 -47t-67 -113q0 -4 -2 -14v-12q0 -57 37 -94t97 -37q66 0 120 45.5t64 111.5zM1378 1675q0 6 2 15v14q0 55 -36.5 93t-94.5 38q-66 0 -120 -47t-66 -113q0 -4 -2 -14v-12q0 -57 37 -94t96 -37 q66 0 120 45.5t64 111.5zM872 1126l58 -399h-271z" />
<glyph unicode="&#xc5;" horiz-adv-x="1355" d="M1333 0q53 0 60 51l20 117v6l2 6q0 39 -43 39h-84l-190 1167q51 37 87 90.5t46 114.5q4 23 4 47q0 92 -59.5 153.5t-159.5 61.5q-111 0 -200 -77.5t-107 -184.5q-4 -25 -4 -47q0 -94 63 -155l-631 -1170h-78q-20 0 -37.5 -14.5t-21.5 -36.5l-20 -117q0 -51 40 -51h224 q14 0 30.5 11.5t22.5 23.5l240 459h430l71 -459l-2 2q0 -14 14.5 -25.5t30.5 -11.5h252zM874 1128l58 -399h-270zM1042 1591q-6 -29 -28.5 -49t-48.5 -22h-15q-55 4 -55 55q0 2 2 8v8q6 31 30.5 51.5t53.5 20.5q25 0 44 -17.5t19 -41.5l-2 -7v-6z" />
<glyph unicode="&#xc6;" horiz-adv-x="1898" d="M1874 0q53 0 59 51l23 125v6l2 6q0 39 -43 39h-612l77 449h488q23 0 40 14.5t19 34.5l25 129q0 49 -43 49h-488l68 381h545q49 0 59 51l23 125q0 51 -43 51h-1090q-20 0 -37.5 -14t-19.5 -37l-21 -110q0 -51 41 -52h55l-851 -1079h-84q-51 0 -62 -51l-20 -117 q0 -51 43 -51h202q12 0 26.5 9t20.5 18v-2l306 389h493l-35 -195h-71q-51 0 -62 -51l-20 -117q0 -51 43 -51h944zM764 645l455 586l-103 -586h-352z" />
<glyph unicode="&#xc7;" horiz-adv-x="1245" d="M1489 1423q0 39 -27 47l2 -2q-86 41 -180 66t-217 25q-158 0 -300 -57.5t-257 -164t-193.5 -254t-109.5 -323.5q-16 -98 -17 -189q0 -223 100.5 -373.5t282.5 -205.5l-88 -82v2q-14 -14 -16 -33v-6q-2 -2 -2 -6q0 -14 6 -23l35 -51q12 -12 33 -12h10q4 2 16 4q6 2 11 2 q12 2 26 6q51 14 76 14t42 -6t17 -18q-2 -14 -31.5 -19.5t-72.5 -5.5q-45 0 -95.5 12.5t-101.5 30.5h-10q-51 0 -61 -51l-19 -104q0 -45 29 -52v3q72 -23 131 -33t129 -10q127 0 228.5 57t121.5 174q4 18 4 37q0 102 -100 147q94 8 175 33t148 55q27 12 35 45l27 152v4 q2 4 2 6q0 16 -13.5 28.5t-31.5 12.5q-20 0 -33 -10l10 4q-86 -43 -171 -67.5t-191 -24.5q-172 0 -272.5 116.5t-100.5 307.5q0 63 12 129q23 119 71 220t120 177t163 118t193 42q86 0 153.5 -17.5t143.5 -48.5q4 -6 25 -6q39 0 55 35l-2 -2l66 117q8 8 14 24v4z" />
<glyph unicode="&#xc8;" d="M1096 0q20 0 37.5 14.5t19.5 36.5l23 125v6l2 6q0 39 -41 39h-652l78 451h529q51 0 61 51l23 129v6l2 6q0 39 -45 39h-529l68 383h583q49 0 58 49l22 127v9q2 2 2 6q0 37 -41 37h-79q14 4 27 18t16 31l20 117q0 18 -10 32.5t-25 18.5l-588 127h-10q-20 0 -37.5 -14.5 t-21.5 -37.5l-25 -145v-6q-2 -4 -2 -6q0 -33 33 -39l586 -96h-797q-51 0 -61 -52l-21 -118v-7l-2 -6q0 -37 45 -37h68l-191 -1081h-67q-51 0 -62 -51l-20 -117q0 -51 43 -51h981z" />
<glyph unicode="&#xc9;" d="M1245 1618q29 6 39 49l25 145v7q2 2 2 4q0 41 -43 41h-11l-639 -129q-16 -4 -29.5 -18.5t-17.5 -30.5l-20 -117q0 -41 29 -49h-197q-51 0 -61 -52l-21 -118v-7l-2 -6q0 -37 45 -37h68l-191 -1081h-67q-51 0 -62 -51l-20 -117q0 -51 43 -51h981q20 0 37.5 14.5t19.5 36.5 l23 125v6l2 6q0 39 -41 39h-652l78 451h529q51 0 61 51l23 129v6l2 6q0 39 -45 39h-529l68 383h583q49 0 58 49l22 127v9q2 2 2 6q0 37 -41 37h-682z" />
<glyph unicode="&#xca;" d="M1096 0q20 0 37.5 14.5t19.5 36.5l23 125v6l2 6q0 39 -41 39h-652l80 453h529q23 0 39 14.5t20 34.5l23 129v6l2 6q0 39 -45 39h-529l68 383h583q49 0 60 51l20 125v9q2 2 2 6q0 37 -41 37h-913q-51 0 -61 -52l-21 -116q0 -51 43 -52h68l-191 -1081h-67 q-23 0 -39.5 -14.5t-20.5 -34.5l-22 -119q0 -51 43 -51h981zM1255 1524h9q20 0 38.5 13t20.5 36l20 113q0 39 -24 47h2l-363 172l-8 2h-8q-4 0 -10 -2h-6l-420 -172h2q-12 -4 -24.5 -19.5t-16.5 -27.5l-21 -113q0 -49 43 -49h11l399 133z" />
<glyph unicode="&#xcb;" d="M1311 1675q0 6 2 15v14q0 55 -37 93t-94 38q-63 0 -117.5 -47t-67.5 -113q0 -4 -2 -14v-14q0 -49 29 -84t76 -43h-430q57 10 102 53t55 102q0 6 2 15v14q0 55 -35.5 93t-93.5 38q-66 0 -120 -47t-66 -113q0 -4 -2 -14v-14q0 -49 28.5 -84t77.5 -43h-235q-51 0 -61 -52 l-21 -118q0 -51 43 -52h68l-191 -1079h-67q-51 0 -62 -51l-20 -117q0 -51 43 -51h981q20 0 37.5 14.5t19.5 36.5l23 125v6l2 6q0 39 -41 39h-652l78 451h529q51 0 61 51l23 129v6l2 6q0 37 -45 37h-529l68 383h583q51 0 58 51l22 127v9q2 2 2 6q0 37 -41 37h-145 q59 10 104.5 53t55.5 102z" />
<glyph unicode="&#xcc;" horiz-adv-x="577" d="M504 0q53 0 59 51l21 117v6l2 6q0 39 -43 39h-68l191 1081h67q51 0 60 50l20 118v7l2 6q0 39 -43 39h-391q-51 0 -62 -52l-20 -118v-7l-2 -6q0 -37 45 -37h66l-191 -1081h-65q-51 0 -62 -51l-20 -117q0 -51 43 -51h391zM811 1518h8q20 0 37.5 15t20.5 36l20 117 q0 18 -10 32.5t-25 18.5l-575 127h-11q-20 0 -36.5 -14.5t-20.5 -37.5l-24 -145v-6q-2 -4 -2 -6q0 -33 32 -39z" />
<glyph unicode="&#xcd;" horiz-adv-x="577" d="M504 0q53 0 59 51l21 117v6l2 6q0 39 -43 39h-68l191 1081h67q51 0 60 50l20 118v7l2 6q0 39 -43 39h-391q-51 0 -62 -52l-20 -118v-7l-2 -6q0 -37 45 -37h66l-191 -1081h-65q-51 0 -62 -51l-20 -117q0 -51 43 -51h391zM924 1618q29 6 39 49l24 145v7q2 2 2 4 q0 41 -43 41h-10l-625 -129q-16 -4 -29.5 -18.5t-17.5 -30.5l-20 -117q0 -51 43 -51h6z" />
<glyph unicode="&#xce;" horiz-adv-x="585" d="M510 0q53 0 59 51l23 119q0 49 -43 49h-68l191 1081h67q53 0 60 52l20 116v7l2 6q0 39 -43 39h-397q-49 0 -59 -52l-21 -116q0 -51 41 -52h70l-191 -1081h-69q-49 0 -58 -49l-22 -119q0 -51 41 -51h397zM958 1524h9q20 0 38.5 13t20.5 36l21 113q0 39 -25 47h2l-358 172 l-9 2h-8q-4 0 -10 -2h-6l-416 -172h2q-12 -4 -24.5 -19.5t-16.5 -27.5l-20 -113q0 -49 43 -49h10l395 133z" />
<glyph unicode="&#xcf;" horiz-adv-x="581" d="M508 0q51 0 57 51l21 117v8q2 2 2 6q0 37 -41 37h-68l191 1079h67q51 0 58 52l20 118v9q2 2 2 6q0 37 -41 37h-395q-51 0 -62 -52l-20 -118q0 -51 43 -52h68l-191 -1079h-67q-51 0 -62 -51l-20 -117q0 -51 43 -51h395zM524 1675q0 6 2 15v14q0 55 -35.5 93t-93.5 38 q-63 0 -117.5 -47t-66.5 -113q0 -4 -2 -14v-12q0 -57 37 -94t94 -37q66 0 119 45.5t63 111.5zM997 1675q0 6 2 15v16q0 55 -35.5 92t-91.5 37q-63 0 -117.5 -47t-66.5 -113q0 -4 -2 -14v-12q0 -57 37 -94t94 -37q66 0 118 45.5t62 111.5z" />
<glyph unicode="&#xd0;" horiz-adv-x="1380" d="M1479 756q16 86 16 168q0 266 -170 426.5t-504 160.5h-440q-53 0 -59 -51l-21 -117v-6l-2 -6q0 -39 43 -39h70l-74 -422h-88q-20 0 -37.5 -14t-19.5 -37l-23 -121v-6v-4q0 -41 41 -41h88l-76 -428h-69q-51 0 -62 -51l-20 -117q0 -51 43 -51h440q195 0 354.5 56.5 t276.5 158.5t190.5 239.5t102.5 301.5zM1198 756q-20 -115 -71.5 -212.5t-127 -169t-167 -109.5t-189.5 -38h-156l74 420h227q49 0 60 51l22 121q0 51 -43 51h-227l74 414h131q186 0 294.5 -112.5t108.5 -299.5q0 -57 -10 -116z" />
<glyph unicode="&#xd1;" horiz-adv-x="1564" d="M1532 1876h-117q-12 0 -31.5 -13.5t-25.5 -27.5q-8 -25 -22.5 -41t-35.5 -16q-35 0 -64.5 7t-72.5 21h-4v4q-49 16 -89 23.5t-103 7.5q-117 0 -199 -80t-115 -188v-8q0 -33 23 -45h-314q-20 0 -37.5 -14.5t-21.5 -37.5l-20 -118q0 -49 41 -50h69l-190 -1081h-70 q-20 0 -37.5 -14.5t-21.5 -36.5l-21 -117q0 -51 41 -51h273q20 0 37.5 14.5t19.5 36.5l182 1034l514 -1062v2q4 -8 16.5 -16.5t20.5 -8.5h203q20 0 37.5 14.5t19.5 36.5l221 1249h70q23 0 40 14.5t19 35.5l21 118v7l2 6q0 39 -43 39h-270q-51 0 -62 -52l-182 -1034 l-510 1063v-2q-4 10 -27 21h101q16 0 33.5 12t25.5 26q10 27 25.5 43.5t40.5 16.5q43 0 102 -19q14 -6 27 -8q4 0 6 -2q4 -2 8 -2l6 -2q8 -4 12 -4l9 -2q47 -12 82.5 -18.5t91.5 -6.5q115 0 190.5 84t108.5 199z" />
<glyph unicode="&#xd2;" horiz-adv-x="1544" d="M1325 1518q20 0 40.5 14t25.5 37l20 117q0 41 -31 51l-600 127h-10q-20 0 -36.5 -14.5t-20.5 -34.5l-25 -148v-6q-2 -4 -2 -6q0 -33 33 -39l371 -62q-2 0 -13 2h-12q-172 0 -317.5 -58t-255 -165.5t-182 -253t-103.5 -319.5q-18 -102 -19 -195q0 -276 153 -439t443 -163 q174 0 318.5 59.5t255 166t181.5 252t101 319.5q18 104 19 196q0 211 -90 357.5t-266 206.5zM1360 760q-20 -117 -63.5 -217.5t-111 -178t-158.5 -121.5t-202 -44q-178 0 -264 109.5t-86 291.5q0 76 14 160q20 117 64.5 218t111 179t157.5 122t202 44q178 0 265 -108.5 t87 -288.5q0 -80 -16 -166z" />
<glyph unicode="&#xd3;" horiz-adv-x="1544" d="M1434 1616q43 6 53 51l24 148v4q2 2 2 4q0 16 -14 28.5t-31 12.5h-10l-635 -125q-16 -4 -33.5 -21.5t-21.5 -31.5l-20 -117q0 -25 14 -38t35 -13l14 2q-242 -74 -397.5 -276t-206.5 -484q-18 -102 -19 -195q0 -276 153 -439t443 -163q174 0 318.5 59.5t255 166t181.5 252 t101 319.5q18 104 19 201q0 274 -151.5 434.5t-442.5 160.5h-10q-8 -2 -11 -2zM1360 760q-20 -117 -63.5 -217.5t-111 -178t-158.5 -121.5t-202 -44q-178 0 -264 109.5t-86 291.5q0 76 14 160q20 117 64.5 218t111 179t157.5 122t202 44q178 0 265 -108.5t87 -288.5 q0 -80 -16 -166z" />
<glyph unicode="&#xd4;" horiz-adv-x="1544" d="M1640 760q18 104 19 201q0 274 -151.5 434.5t-442.5 160.5q-172 0 -317.5 -58t-255 -164.5t-182 -253t-103.5 -320.5q-18 -102 -19 -195q0 -276 153 -439t443 -163q174 0 318.5 59.5t255 166t181 252t101.5 319.5zM1360 760q-20 -117 -63.5 -217.5t-111 -178 t-158.5 -121.5t-202 -44q-178 0 -264 109.5t-86 291.5q0 76 14 160q20 117 64.5 218t111 179t157.5 122t202 44q178 0 265 -108.5t87 -288.5q0 -80 -16 -166zM1446 1526h6l4 -2q20 0 37.5 14t22.5 37l18 111q0 12 -7 26t-14 19l-368 174l-8 2h-9q-6 0 -9 -1t-11 -5l2 2 l-422 -170h2q-12 -4 -24.5 -19.5t-16.5 -27.5l-18 -111v-6l-2 -6q0 -39 41 -39l6 2h6l403 131z" />
<glyph unicode="&#xd5;" horiz-adv-x="1544" d="M1538 1876h-117q-14 0 -32.5 -13.5t-26.5 -27.5q-6 -25 -20.5 -41t-34.5 -16q-37 0 -66 7t-72 21h-4v4q-49 16 -89 24.5t-103 8.5q-117 0 -200 -82t-114 -188v-6q0 -49 43 -49h101q-238 -76 -391.5 -277t-204.5 -481q-18 -102 -19 -195q0 -276 153 -439t443 -163 q174 0 318.5 59.5t255 166t181.5 252t101 319.5q18 104 19 201q0 274 -151.5 434.5t-442.5 160.5q-119 0 -240 -32q29 18 41 39q8 23 22.5 38t39.5 15q43 0 104 -21h2q23 -8 31 -12l-2 4l2 -2q6 -6 14 -6q4 -2 11 -2h2q51 -14 86.5 -20.5t91.5 -6.5q115 0 190.5 85 t108.5 200zM1360 760q-20 -117 -63.5 -217.5t-111 -178t-158.5 -121.5t-202 -44q-178 0 -264 109.5t-86 291.5q0 76 14 160q20 117 64.5 218t111 179t157.5 122t202 44q178 0 265 -108.5t87 -288.5q0 -80 -16 -166z" />
<glyph unicode="&#xd6;" horiz-adv-x="1544" d="M1495 1677q0 6 2 15v14q0 53 -37 91t-94 38q-66 0 -120 -47t-66 -111q0 -4 -2 -14v-12q0 -74 57 -115q-76 18 -170 18q-72 0 -154 -14q37 23 62.5 58.5t34.5 78.5q0 6 2 15v14q0 53 -37 91t-94 38q-66 0 -120 -47t-67 -111q0 -4 -2 -14v-14q0 -53 34 -90t87 -41 q-240 -72 -396.5 -274t-207.5 -484q-18 -102 -19 -195q0 -276 153 -439t443 -163q174 0 318.5 59.5t255 166t181.5 252t101 319.5q18 104 19 198q0 209 -89 354.5t-263 205.5h4q66 0 120 46.5t64 112.5zM1360 760q-20 -117 -64.5 -218.5t-111 -179t-157.5 -121.5t-202 -44 q-178 0 -264 109.5t-86 291.5q0 78 14 162q20 115 63.5 216t111 179t158.5 122t202 44q178 0 264 -108.5t86 -290.5q0 -76 -14 -162z" />
<glyph unicode="&#xd7;" d="M1229 954l-2 -2q18 12 22 37q0 27 -8 37l-82 100q-12 14 -35 15q-23 0 -39 -15l-362 -309l-254 309q-12 14 -35 15q-23 0 -39 -15l-119 -100q-12 -10 -18 -35v-2v-6q-2 -6 -2 -8q0 -14 10 -23l254 -307l-362 -307q-12 -10 -19 -35v-2v-8q-2 -6 -2 -8q0 -10 8 -21l84 -98 h-2q12 -14 35 -14t39 14l363 307l249 -307q12 -14 35 -14t39 14h-2l119 98q20 16 22 37q0 27 -8 37l-252 307z" />
<glyph unicode="&#xd8;" horiz-adv-x="1544" d="M1640 758q18 100 19 194q0 182 -70 318l142 139v-2q10 10 13 15t5 18q0 27 -10 43l-76 73q-10 10 -29 11q-20 0 -32 -6l-136 -136q-150 125 -403 125q-172 0 -316.5 -58t-254 -164.5t-182 -252t-103.5 -317.5q-18 -102 -19 -195q0 -188 72 -321l-141 -138 q-14 -16 -17 -30q0 -25 9 -35l73 -76h-2q12 -14 33 -14q23 0 29 6l139 135q154 -127 401 -127q174 0 318.5 58.5t255 166t181 253t101.5 317.5zM489 758q20 117 64.5 217t110 177t156.5 121t202 44q160 0 246 -86l-781 -768q-14 57 -14 127q0 76 16 168zM1360 758 q-20 -117 -63.5 -217.5t-111 -178t-158.5 -121.5t-202 -44q-158 0 -247 84l782 766q14 -66 14 -140q0 -73 -14 -149z" />
<glyph unicode="&#xd9;" horiz-adv-x="1468" d="M1616 1300q53 0 59 52l21 116v7l2 6q0 39 -43 39h-275q-51 0 -61 -52l-162 -917q-31 -186 -122 -269t-253 -83q-139 0 -203.5 55t-64.5 178q0 53 10 119l162 917v7l2 6q0 39 -43 39h-289q-20 0 -37.5 -14.5t-21.5 -37.5l-21 -116q0 -51 41 -52h70l-137 -780 q-14 -80 -14 -147q0 -201 122.5 -306.5t380.5 -105.5q295 0 460 144.5t212 414.5l137 780h68zM1288 1520h8q18 0 38 15t22 34l20 117q0 41 -30 51l-598 127h-11q-20 0 -37.5 -14.5t-21.5 -34.5l-25 -148v-6q-2 -4 -2 -6q0 -33 33 -39z" />
<glyph unicode="&#xda;" horiz-adv-x="1468" d="M1632 1300q53 0 60 52l20 116v7l2 6q0 39 -43 39h-274q-51 0 -62 -52l-161 -917q-31 -186 -122 -269t-253 -83q-139 0 -204 55t-65 178q0 53 11 119l161 917v7l3 6q0 39 -43 39h-289q-20 0 -38 -14.5t-22 -37.5l-20 -116q0 -51 41 -52h69l-137 -780q-14 -80 -14 -147 q0 -201 123 -306.5t381 -105.5q295 0 459.5 144.5t211.5 414.5l138 780h67zM1462 1616q43 6 54 51l24 148v4q2 4 2 6q0 16 -12 27.5t-31 11.5h-10l-643 -127q-16 -4 -30.5 -19.5t-18.5 -31.5l-21 -117q0 -49 43 -49h8z" />
<glyph unicode="&#xdb;" horiz-adv-x="1468" d="M1620 1300q53 0 59 52l23 118q0 51 -43 52h-275q-53 0 -59 -52l-164 -919q-31 -186 -122 -269t-253 -83q-139 0 -203.5 55t-64.5 178q0 53 10 119l164 919q0 51 -43 52h-289q-20 0 -37.5 -14.5t-19.5 -37.5l-22 -118q0 -51 41 -52h69l-137 -780q-14 -80 -14 -147 q0 -201 122.5 -306.5t380.5 -105.5q295 0 460 144.5t212 414.5l137 780h68zM1405 1526h6l4 -2q20 0 37.5 14t22.5 37l18 111q0 12 -7 26t-13 19l-369 174l-8 2h-9h-6l-8 -2l-424 -172h2q-12 -4 -24.5 -19.5t-16.5 -27.5l-18 -111v-6l-2 -6q0 -39 41 -39l6 2h4l406 131z" />
<glyph unicode="&#xdc;" horiz-adv-x="1468" d="M1632 1300q23 0 40.5 14.5t19.5 35.5l20 118v7l2 6q0 39 -43 39h-274q-51 0 -62 -52l-161 -917q-31 -186 -122 -270t-253 -84q-139 0 -204 56t-65 179q0 53 11 119l161 917v7l3 6q0 39 -43 39h-289q-20 0 -38 -14.5t-22 -37.5l-20 -118q0 -49 41 -50h69l-137 -780 q-14 -80 -14 -147q0 -201 123 -306.5t381 -105.5q295 0 459.5 144.5t211.5 414.5l138 780h67zM971 1677q0 6 2 15v14q0 53 -37 91t-94 38q-66 0 -120 -47t-67 -111q0 -4 -2 -14v-12q0 -57 37 -95t96 -38q66 0 120.5 46.5t64.5 112.5zM1458 1677q0 6 2 15v14q0 53 -37 91 t-94 38q-66 0 -120 -47t-66 -111q0 -4 -2 -14v-12q0 -57 36.5 -95t96.5 -38q66 0 120 46.5t64 112.5z" />
<glyph unicode="&#xdd;" horiz-adv-x="1202" d="M1411 1300q51 0 59 50l21 118v7l2 6q0 39 -43 39h-190q-10 0 -28 -9.5t-22 -17.5l-424 -567l-249 569v-2q-6 10 -17.5 18.5t-21.5 8.5h-207q-20 0 -37.5 -14.5t-22.5 -37.5l-20 -118v-7v-4q0 -39 41 -39h70l282 -634l-78 -447h-67q-51 0 -62 -51l-20 -117q0 -51 43 -51 h399q53 0 60 51l20 117v6l2 6q0 39 -43 39h-67l79 455l465 626h76zM1296 1616q43 6 54 51l24 145v5q2 4 2 6q0 16 -13 28.5t-32 12.5h-10l-643 -129q-16 -4 -28.5 -18.5t-16.5 -30.5l-21 -117q0 -51 41 -51h9z" />
<glyph unicode="&#xde;" horiz-adv-x="1161" d="M1300 768q10 51 11 100q0 170 -115 264.5t-324 94.5h-213l11 65h71q51 0 62 51l20 117q0 51 -43 51h-399q-53 0 -59 -51l-21 -117v-6l-2 -6q0 -39 43 -39h68l-189 -1073h-67q-51 0 -62 -51l-20 -117q0 -51 43 -51h411q53 0 60 51l20 117v6l2 6q0 39 -43 39h-84l17 98h213 q240 0 395 117t194 334zM1032 768q-39 -223 -272 -223h-221l79 454h222q96 0 147 -45t51 -129q0 -26 -6 -57z" />
<glyph unicode="&#xdf;" horiz-adv-x="1167" d="M1225 492q12 66 12 124q0 236 -188 322q72 51 123 131t69 180q6 37 6 74q0 143 -99 227t-263 84q-127 0 -225.5 -37.5t-167 -106.5t-111.5 -160t-62 -202l-190 -1077q0 -51 41 -51h154q53 0 59 51l192 1084q20 125 83 204.5t180 79.5q70 0 107.5 -35.5t37.5 -101.5 q0 -25 -4 -49q-14 -90 -76.5 -143.5t-146.5 -53.5h-43q-53 0 -60 -51l-22 -131v-6l-2 -6q0 -39 43 -39h45q117 0 183.5 -57.5t66.5 -167.5q0 -33 -6 -72q-27 -150 -110 -226.5t-200 -76.5q-35 0 -63.5 4t-73.5 18h-8q-20 0 -36.5 -14t-20.5 -37l-23 -123q0 -41 25 -49 q49 -16 89 -21.5t89 -5.5q223 0 388 134.5t208 382.5z" />
<glyph unicode="&#xe0;" horiz-adv-x="1103" d="M1114 139l-37 88q-16 16 -37 17q-8 0 -24 -6l-4 -2l-4 -3q-4 -4 -7 -4q-2 0 -8 -4q-29 -12 -39 -12l78 432q8 53 8 98q0 199 -159 267q20 16 24 41q0 8 -2 20q-2 8 -2 10l-203 355v-4q-2 8 -16 16t-23 8h-153q-23 0 -39 -14.5t-21 -32.5q0 -25 9 -35v4l209 -334 q-84 -2 -164 -21t-148 -52q-33 -10 -37 -47l-2 -6q-2 -6 -2 -11q0 -6 4 -10l23 -94v2q6 -31 41 -31q23 0 35 10l-11 -4q102 47 213 47q168 0 168 -125q0 -16 -4 -34v-4q-43 27 -99 43t-120 16q-186 0 -313 -104.5t-158 -268.5q-8 -45 -8 -86q0 -137 87 -213t249 -76 q86 0 160.5 27t130.5 68q33 -70 147 -70q55 0 118.5 24.5t121.5 65.5zM729 354q-14 -74 -80.5 -120t-154.5 -46q-76 0 -114 34t-38 93q0 16 4 35q12 74 64.5 118t134.5 44q90 0 138 -37t48 -96v-12q-2 -7 -2 -13z" />
<glyph unicode="&#xe1;" horiz-adv-x="1103" d="M1094 1393l-2 -4q12 10 16 26q0 4 2 8q0 47 -41 47h-156q-8 0 -22 -7t-23 -15l2 2l-329 -354l4 4q-14 -12 -19 -33v-2v-6q-2 -6 -2 -8q0 -12 8 -21q-98 -18 -180 -59q-33 -10 -37 -47l-2 -6q-2 -6 -2 -11q0 -6 4 -10l23 -94v2q6 -31 41 -31q23 0 35 10l-11 -4 q102 47 213 47q168 0 168 -125q0 -16 -4 -34v-4q-43 27 -99 43t-120 16q-186 0 -313 -104.5t-158 -268.5q-8 -45 -8 -86q0 -137 87 -213t249 -76q86 0 160.5 27t130.5 68q33 -70 147 -70q55 0 118.5 24.5t121.5 65.5l18 49l-37 88q-16 16 -37 17q-8 0 -24 -6l-4 -2l-4 -3 q-4 -4 -7 -4q-2 0 -8 -4q-29 -12 -39 -12l78 432q10 55 10 100q0 131 -72.5 207t-221.5 90zM729 354q-14 -74 -80.5 -120t-154.5 -46q-76 0 -114 34t-38 93q0 16 4 35q12 74 64.5 118t134.5 44q90 0 138 -37t48 -96v-12q-2 -7 -2 -13z" />
<glyph unicode="&#xe2;" horiz-adv-x="1103" d="M1012 997q23 0 40 14.5t19 35.5v4q2 4 2 8q0 8 -6 16l-149 373l-3 -2q-4 8 -16 17.5t-22 9.5h-168q-8 0 -26.5 -9.5t-23.5 -17.5l-282 -377l6 8q-10 -8 -14 -26l-2 -4q0 -49 41 -50h8q-45 -16 -64 -26q-33 -10 -37 -47l-2 -6q-2 -6 -2 -11q0 -6 4 -10l23 -94v2 q6 -31 41 -31q23 0 35 10l-11 -4q102 47 213 47q168 0 168 -125q0 -16 -4 -34v-4q-43 27 -99 43t-120 16q-186 0 -313 -104.5t-158 -268.5q-8 -45 -8 -86q0 -137 87 -213t249 -76q86 0 160.5 27t130.5 68q33 -70 147 -70q55 0 118.5 24.5t121.5 65.5l18 49l-37 88 q-16 16 -37 17q-8 0 -24 -6l-4 -2l-4 -3q-4 -4 -7 -4q-2 0 -8 -4q-29 -12 -39 -12l78 432q8 53 8 100q0 178 -133 252h105zM729 354q-14 -74 -80.5 -120t-154.5 -46q-76 0 -114 34t-38 93q0 16 4 35q12 74 64.5 118t134.5 44q90 0 138 -37t48 -96v-12q-2 -7 -2 -13z M680 1044q-45 0 -92 -6l155 205l99 -219q-78 20 -162 20z" />
<glyph unicode="&#xe3;" horiz-adv-x="1103" d="M1094 1360h-119q-20 0 -36.5 -13.5t-20.5 -33.5q-10 -25 -24.5 -40.5t-29.5 -15.5q-16 0 -39 7q-4 2 -8 2h2l-31 10l-2 -2l-2 2h-4q-47 16 -76.5 21.5t-70.5 5.5q-109 0 -190 -78t-103 -176q0 -49 43 -50h37q-31 -10 -68 -28q-33 -10 -37 -47l-2 -6q-2 -6 -2 -11 q0 -6 4 -10l23 -94v2q6 -31 41 -31q23 0 35 10l-11 -4q102 47 213 47q168 0 168 -125q0 -16 -4 -34v-4q-43 27 -99 43t-120 16q-186 0 -313 -104.5t-158 -268.5q-8 -45 -8 -86q0 -137 87 -213t249 -76q86 0 160.5 27t130.5 68q33 -70 147 -70q55 0 118.5 24.5t121.5 65.5 l18 49l-37 88q-16 16 -37 17q-8 0 -24 -6l-4 -2l-4 -3q-4 -4 -7 -4q-2 0 -8 -4q-29 -12 -39 -12l78 432q10 53 10 100q0 145 -90 222t-272 77q-74 0 -141 -12l8 12q8 25 23.5 41.5t31.5 16.5q29 0 82 -17l-4 2l10 -6h8l29 -10h4q29 -6 51.5 -9t61.5 -3q104 0 182 82t96 184z M729 354q-14 -74 -80.5 -120t-154.5 -46q-76 0 -114 34t-38 93q0 16 4 35q12 74 64.5 118t134.5 44q90 0 138 -37t48 -96v-12q-2 -7 -2 -13z" />
<glyph unicode="&#xe4;" horiz-adv-x="1103" d="M1057 1120q0 4 2 13v12q0 49 -36 83t-93 34q-66 0 -118 -42t-62 -100v-12q-2 -6 -2 -10q0 -33 14 -58q-49 4 -82 4q-27 0 -41 -2q31 33 37 78q0 4 2 13v12q0 49 -36 83t-93 34q-63 0 -116.5 -42t-63.5 -100v-10q-2 -8 -2 -12q0 -66 55 -99l-27 -10l-43 -18 q-33 -10 -37 -47l-2 -6q-2 -6 -2 -11q0 -6 4 -10l23 -94v2q6 -31 41 -31q23 0 35 10l-11 -4q102 47 213 47q168 0 168 -125q0 -16 -4 -34v-4q-43 27 -99 43t-120 16q-186 0 -313 -104.5t-158 -268.5q-8 -45 -8 -86q0 -137 87 -213t249 -76q86 0 160.5 27t130.5 68 q33 -70 147 -70q55 0 118.5 24.5t121.5 65.5l18 49l-37 88q-16 16 -37 17q-8 0 -24 -6l-4 -2l-4 -3q-4 -4 -7 -4q-2 0 -8 -4q-29 -12 -39 -12l78 432q8 51 8 98q0 166 -112 242q49 14 85 51t44 84zM729 354q-14 -74 -80.5 -120t-154.5 -46q-76 0 -114 34t-38 93q0 16 4 35 q12 74 64.5 118t134.5 44q90 0 138 -37t48 -96v-12q-2 -7 -2 -13z" />
<glyph unicode="&#xe5;" horiz-adv-x="1103" d="M979 1247q4 23 4 45q0 86 -56.5 144.5t-150.5 58.5q-106 0 -190 -73.5t-103 -174.5q-4 -23 -4 -45q0 -109 84 -166q-119 -18 -211 -65q-33 -10 -37 -47l-2 -6q-2 -6 -2 -11q0 -6 4 -10l23 -94v2q6 -31 41 -31q23 0 35 10l-11 -4q102 47 213 47q168 0 168 -125 q0 -16 -4 -34v-4q-43 27 -99 43t-120 16q-186 0 -313 -104.5t-158 -268.5q-8 -45 -8 -86q0 -137 87 -213t249 -76q86 0 160.5 27t130.5 68q33 -70 147 -70q55 0 118.5 24.5t121.5 65.5l18 49l-37 88q-16 16 -37 17q-8 0 -24 -6l-4 -2l-4 -3q-4 -4 -7 -4q-2 0 -8 -4 q-29 -12 -39 -12l78 432q8 53 8 98q0 117 -55 190t-170 97q63 31 107.5 89t56.5 128zM729 354q-14 -74 -80.5 -120t-154.5 -46q-76 0 -114 34t-38 93q0 16 4 35q12 74 64.5 118t134.5 44q90 0 138 -37t48 -96v-12q-2 -7 -2 -13zM797 1247q-4 -29 -28 -47t-48 -18 q-57 0 -57 65q6 27 29.5 46.5t49.5 19.5q23 0 39.5 -15.5t16.5 -37.5q0 -2 -2 -7v-6z" />
<glyph unicode="&#xe6;" horiz-adv-x="1615" d="M1618 406q20 0 37.5 14t19.5 37l13 65q14 84 14 154q0 369 -375 368q-90 0 -178 -32.5t-154 -91.5q-43 66 -122.5 95t-192.5 29q-88 0 -175 -20t-161 -55q-10 -4 -19.5 -17.5t-11.5 -27.5l-2 -6q-2 -6 -2 -11q0 -6 4 -10l23 -94v2q6 -31 43 -31q12 0 24 6q102 47 215 47 q170 0 170 -125q0 -16 -4 -34v-2q-41 27 -96 42t-127 15q-186 0 -315 -104.5t-160 -268.5q-8 -45 -8 -88q0 -137 90 -212t268 -75q113 0 208 42t165 108q43 -63 128 -106.5t220 -43.5q123 0 205 19.5t143 50.5q8 4 20.5 19.5t14.5 25.5l23 127q0 51 -41 51q-23 0 -35 -10 q-53 -27 -122 -44t-151 -17q-109 0 -161 60t-56 149h621zM729 354q-14 -74 -79.5 -120t-153.5 -46q-76 0 -115 34t-39 93q0 16 4 35q12 74 64.5 118t136.5 44q90 0 137 -36t47 -95v-14q-2 -7 -2 -13zM1284 831q80 0 116 -44t36 -130q0 -6 -2 -18v-21h-402q33 96 98.5 154.5 t153.5 58.5z" />
<glyph unicode="&#xe7;" horiz-adv-x="894" d="M1083 922l4 14q0 37 -20 47q-68 33 -138.5 53.5t-156.5 20.5q-115 0 -217 -40t-184 -113t-137.5 -172t-75.5 -216q-10 -63 -11 -123q0 -147 68 -249.5t197 -143.5l-90 -96q-14 -16 -17 -31q0 -27 8 -37l37 -41h-2q12 -14 35 -14q18 0 31 10q45 18 78 19q20 0 33.5 -5.5 t13.5 -17.5q-2 -12 -26 -16t-62 -4q-39 0 -85.5 12t-80.5 28h-6l-9 3q-20 0 -37.5 -14.5t-21.5 -37.5l-16 -98q0 -16 8 -28.5t16 -18.5q57 -23 109.5 -34t113.5 -11q125 0 215.5 53t110.5 170q4 18 4 37q0 57 -33.5 96t-87.5 56q68 8 129.5 25.5t116.5 37.5q10 4 22.5 19.5 t16.5 27.5l22 131v4l3 6q0 16 -13.5 28.5t-32.5 12.5q-12 0 -24 -6q-74 -37 -137.5 -52t-124.5 -15q-104 0 -160.5 64.5t-56.5 174.5q0 37 6 78q25 135 105.5 223t209.5 88q63 0 113.5 -12t91.5 -31q8 -8 27 -8q39 0 55 35l-4 -4z" />
<glyph unicode="&#xe8;" horiz-adv-x="1071" d="M883 1026q49 0 59 49q0 6 -4 21l-2 10l-203 354v-4q-2 8 -16.5 16.5t-22.5 8.5h-153q-23 0 -39.5 -14.5t-20.5 -32.5q0 -25 8 -35v4l224 -356q0 -2 2 -3q-215 -8 -365.5 -154.5t-191.5 -379.5q-10 -66 -11 -123q0 -186 105.5 -299t314.5 -113q119 0 197 18.5t151 51.5 q27 12 35 45l23 127q0 51 -41 51q-12 0 -25 -6q-59 -29 -128.5 -47t-151.5 -18q-109 0 -161 60t-56 149h616q53 0 59 51l13 65q14 80 14 150q0 287 -231 354h2zM694 831q78 0 116 -46t38 -132q0 -8 -2 -16v-19h-400q41 104 101.5 158.5t146.5 54.5z" />
<glyph unicode="&#xe9;" horiz-adv-x="1071" d="M1106 1403l-4 -4q14 12 18 35q0 47 -41 47h-155q-8 0 -22.5 -7.5t-20.5 -15.5l2 2l-330 -354l4 4q-18 -16 -18 -35v-6q-2 -4 -2 -6q0 -37 41 -37h12q-168 -45 -282.5 -182t-149.5 -334q-10 -66 -11 -123q0 -186 105.5 -299t314.5 -113q119 0 197 18.5t151 51.5 q27 12 35 45l23 127q0 51 -41 51q-12 0 -25 -6q-59 -29 -128.5 -47t-151.5 -18q-109 0 -161 60t-56 149h616q53 0 59 51l13 65q14 80 14 150q0 178 -93 273t-269 99q4 4 4 7v-4zM694 831q78 0 116 -46t38 -132q0 -8 -2 -16v-19h-400q41 104 101.5 158.5t146.5 54.5z" />
<glyph unicode="&#xea;" horiz-adv-x="1071" d="M1026 406q53 0 59 51l13 65q14 80 14 150q0 182 -96 277t-279 95q-111 0 -208 -38.5t-172.5 -109.5t-127 -169t-71.5 -217q-10 -66 -11 -123q0 -186 105.5 -299t314.5 -113q119 0 197 18.5t151 51.5q27 12 35 45l23 127q0 51 -41 51q-12 0 -25 -6q-59 -29 -128.5 -47 t-151.5 -18q-109 0 -161 60t-56 149h616zM1049 1028q23 0 39 14.5t20 34.5q0 20 -6 29l-150 373v-2q-4 8 -17 17t-24 9h-168q-8 0 -25.5 -9t-21.5 -17l-282 -377l4 8q-14 -14 -15 -31v-4v-6q0 -16 11.5 -27.5t29.5 -11.5h121q10 0 22.5 5t18.5 9l174 232l103 -230 q4 -4 16 -10t21 -6h129zM694 831q78 0 116 -46t38 -132q0 -8 -2 -16v-19h-400q41 104 101.5 158.5t146.5 54.5z" />
<glyph unicode="&#xeb;" horiz-adv-x="1071" d="M1098 1157v10q2 8 2 11q0 51 -37 85.5t-94 34.5q-66 0 -117 -42t-61 -99q0 -4 -3 -14v-13q0 -63 54 -96q-51 10 -105 10q-61 0 -129 -14q43 16 72 51t37 76v10q2 8 2 11q0 51 -37 85.5t-94 34.5q-63 0 -115.5 -42t-62.5 -99q0 -4 -2 -12v-10q0 -51 36.5 -85t92.5 -34 q18 0 28 2q-160 -51 -266 -184.5t-141 -323.5q-10 -66 -11 -123q0 -186 105.5 -299t314.5 -113q119 0 197 18.5t151 51.5q27 12 35 45l23 127q0 51 -41 51q-12 0 -25 -6q-59 -29 -128.5 -47t-151.5 -18q-109 0 -161 60t-56 149h616q53 0 59 51l13 65q14 80 14 150 q0 268 -203 344h9q63 0 116.5 41t63.5 100zM694 831q78 0 116 -46t38 -132q0 -8 -2 -16v-19h-400q41 104 101.5 158.5t146.5 54.5z" />
<glyph unicode="&#xec;" horiz-adv-x="548" d="M608 1001q49 0 58 50q0 8 -2 20q-2 8 -2 10l-203 355v-4q-2 8 -16.5 16t-22.5 8h-154q-23 0 -39 -14.5t-20 -32.5q0 -25 8 -35v4l221 -354q8 -12 17 -16q-41 12 -70 12q-47 0 -107.5 -21.5t-113.5 -58.5h2q-27 -14 -31 -43v-8q-2 -4 -2 -6q0 -8 8 -17l25 -61 q14 -25 39 -25q16 0 33 11q27 18 49 18q2 0 2 -4q0 -6 -4 -23l-101 -571q-8 -41 -8 -74q0 -74 38 -111.5t122 -37.5q51 0 112.5 25.5t120.5 66.5l17 45l-35 82q-14 25 -39 24q-6 0 -12 -1t-19 -7q-8 -8 -24.5 -15t-24.5 -7v4q2 10 2 20l107 596q4 23 4 43q0 98 -72 137h137z " />
<glyph unicode="&#xed;" horiz-adv-x="548" d="M752 1378l-4 -4q14 12 18 35q0 47 -41 47h-156q-8 0 -22.5 -7t-22.5 -15l4 2l-329 -355l2 4q-14 -12 -19 -32v-2q0 -49 41 -50h62q-61 -20 -123 -61h2q-27 -14 -31 -43v-8q-2 -4 -2 -6q0 -8 8 -17l25 -61q14 -25 39 -25q16 0 33 11q27 18 49 18q2 0 2 -4q0 -6 -4 -23 l-101 -571q-8 -41 -8 -74q0 -74 38 -111.5t122 -37.5q51 0 112.5 25.5t120.5 66.5l17 45l-35 82q-14 25 -39 24q-6 0 -12 -1t-19 -7q-8 -8 -24.5 -15t-24.5 -7v4q2 10 2 20l107 596q4 25 4 47q0 66 -37 107t-111 45q4 4 4 6v-4z" />
<glyph unicode="&#xee;" horiz-adv-x="548" d="M584 125l-35 82q-14 25 -39 24q-6 0 -12 -1t-19 -7q-8 -8 -24.5 -15t-24.5 -7v4q2 10 2 20l107 596q4 25 4 47q0 68 -39 110t-121 42q-47 0 -107.5 -21.5t-113.5 -58.5h2q-27 -14 -31 -43v-8q-2 -4 -2 -6q0 -8 8 -17l25 -61q14 -25 39 -25q16 0 33 11q27 18 49 18 q2 0 2 -4q0 -6 -4 -23l-101 -571q-8 -41 -8 -74q0 -74 38 -111.5t122 -37.5q51 0 112.5 25.5t120.5 66.5zM729 997q23 0 40 14.5t19 35.5v4q2 4 3 8q0 8 -7 16l-149 373l-2 -2q-4 8 -16.5 17.5t-22.5 9.5h-168q-8 0 -26.5 -9.5t-22.5 -17.5l-283 -377l6 8q-10 -8 -14 -26 l-2 -4q0 -49 41 -50h121q10 0 23.5 5.5t17.5 9.5l174 231l102 -229q4 -4 16.5 -10.5t20.5 -6.5h129z" />
<glyph unicode="&#xef;" horiz-adv-x="548" d="M584 125l-35 82q-14 25 -39 24q-6 0 -12 -1t-19 -7q-8 -8 -24.5 -15t-24.5 -7v4q2 10 2 20l107 596q4 25 4 47q0 68 -39 110t-121 42q-47 0 -107.5 -21.5t-113.5 -58.5h2q-27 -14 -31 -43v-8q-2 -4 -2 -6q0 -8 8 -17l25 -61q14 -25 39 -25q16 0 33 11q27 18 49 18 q2 0 2 -4q0 -6 -4 -23l-101 -571q-8 -41 -8 -74q0 -74 38 -111.5t122 -37.5q51 0 112.5 25.5t120.5 66.5zM786 1153q0 4 2 12v11q0 51 -36.5 84.5t-94.5 33.5q-66 0 -117 -42t-61 -99v-10q-2 -8 -2 -13q0 -51 36 -84.5t95 -33.5q66 0 118 41t60 100zM406 1153q0 4 2 12v11 q0 51 -37 84.5t-95 33.5q-61 0 -114 -42t-64 -99v-10q-2 -8 -2 -10q0 -51 37 -86t94 -35q66 0 118.5 41t60.5 100z" />
<glyph unicode="&#xf0;" horiz-adv-x="1107" d="M1171 596q18 106 19 209q0 186 -60.5 332.5t-160.5 255.5l112 82q8 6 16.5 19t10.5 24v6q2 4 2 6q0 10 -10 20v-2l-47 70q-18 18 -35 18q-23 0 -39 -16l-143 -107q-51 41 -106.5 69t-108.5 50l-5 2h-6q-14 0 -29.5 -11t-29.5 -28l-55 -84q-10 -12 -11 -26v-6q-2 -2 -2 -6 q0 -31 27 -37q4 -2 10 -4q76 -39 115 -66l-164 -119q-6 -6 -10 -30v-9l-2 -6q0 -8 6 -16l47 -72q10 -18 37 -18q12 0 18 2t17 10h-2l180 131q76 -86 121 -213q-80 33 -168 33q-104 0 -199.5 -39t-170.5 -110.5t-126 -171t-72 -220.5q-12 -68 -12 -129q0 -190 109.5 -302 t308.5 -112q238 0 402.5 162t215.5 459zM893 541q-29 -152 -106.5 -249t-194.5 -97q-96 0 -143.5 64.5t-47.5 166.5q0 45 9 92q23 137 100.5 229.5t194.5 92.5q98 0 146 -62.5t48 -161.5q0 -34 -6 -75z" />
<glyph unicode="&#xf1;" horiz-adv-x="1202" d="M1171 1360h-118q-43 0 -58 -43v-4q-10 -25 -24.5 -40.5t-28.5 -15.5q-16 0 -39 7q-4 2 -8 2h2l-31 10l-2 -2l-2 2h-4q-47 16 -76.5 21.5t-70.5 5.5q-109 0 -190 -78t-103 -176q0 -20 4 -29q-8 2 -27 2q-49 0 -107.5 -22.5t-115.5 -59.5h2q-25 -12 -31 -41q0 -23 7 -31 l24 -63q14 -25 41 -25q23 0 35 13l-4 -2q33 20 53 20q4 0 4 -8l-2 -6v-13l-131 -733q0 -51 41 -51h154q51 0 57 51l80 449q23 137 96.5 228t189.5 91q61 0 91 -33.5t30 -95.5q0 -29 -6 -63l-74 -416q-6 -39 -6 -72q0 -74 39 -112.5t127 -38.5q53 0 116.5 25.5t125.5 66.5 l20 45l-39 84q-14 25 -38 24q-10 0 -33 -10l-6 -2q-14 -8 -27.5 -14t-20.5 -6l5 24l75 441q10 51 11 96q0 135 -83 208.5t-253 73.5q-84 0 -160 -29.5t-139 -80.5q-12 43 -51 65h73q12 0 31.5 14.5t28.5 30.5q8 25 23.5 41.5t31.5 16.5q29 0 82 -17l-4 2l10 -6h8l29 -10h4 q29 -6 51.5 -9t61.5 -3q104 0 182 82t96 184z" />
<glyph unicode="&#xf2;" horiz-adv-x="1146" d="M1161 510q12 66 13 125q0 131 -54.5 226t-156.5 143q39 10 43 47q0 8 -2 20q-2 8 -3 10l-202 355v-4q-2 8 -16.5 16t-22.5 8h-154q-23 0 -39 -14.5t-20 -32.5q0 -25 8 -35v4l209 -334h-10q-233 0 -394 -146t-202 -388q-10 -63 -11 -125q0 -188 109 -299t309 -111 q117 0 217.5 39t178.5 109q159 147 200 387zM899 510q-23 -133 -100.5 -225t-194.5 -92q-96 0 -144 64.5t-48 166.5q0 41 8 86q23 135 100.5 227t194.5 92q96 0 144 -64.5t48 -168.5q0 -41 -8 -86z" />
<glyph unicode="&#xf3;" horiz-adv-x="1146" d="M1130 1378l-4 -4q14 12 19 35q0 47 -41 47h-156q-8 0 -22.5 -7t-22.5 -15l4 2l-329 -355l2 4q-14 -12 -19 -32v-2v-9l-2 -6q0 -12 6 -20q-160 -51 -266 -184.5t-141 -321.5q-10 -63 -11 -125q0 -188 109 -299t309 -111q117 0 217.5 39t178.5 109q160 147 200 387 q12 66 13 125q0 178 -97.5 286.5t-277.5 120.5zM899 510q-23 -133 -100.5 -225t-194.5 -92q-96 0 -144 64.5t-48 166.5q0 41 8 86q23 135 100.5 227t194.5 92q96 0 144 -64.5t48 -168.5q0 -41 -8 -86z" />
<glyph unicode="&#xf4;" horiz-adv-x="1146" d="M1061 997q23 0 40 14.5t19 35.5v4q2 4 2 8q0 8 -6 16l-149 373l-2 -2q-4 8 -16.5 17.5t-22.5 9.5h-168q-8 0 -26.5 -9.5t-22.5 -17.5l-283 -377l6 8q-10 -8 -14 -26l-2 -4q0 -49 41 -50h57q-139 -59 -232.5 -187t-123.5 -300q-10 -63 -11 -125q0 -188 109 -299t309 -111 q117 0 217.5 39t178.5 109q160 147 200 387q12 66 13 125q0 127 -51.5 221t-147.5 141h86zM899 510q-23 -133 -100.5 -225t-194.5 -92q-96 0 -144 64.5t-48 166.5q0 41 8 86q23 135 100.5 227t194.5 92q96 0 144 -64.5t48 -168.5q0 -41 -8 -86zM754 1044q-59 0 -119 -12 l158 211l96 -215q-69 16 -135 16z" />
<glyph unicode="&#xf5;" horiz-adv-x="1146" d="M1141 1360h-119q-43 0 -57 -43v-2q-6 -23 -21.5 -40.5t-32.5 -17.5q-16 0 -39 7q-4 2 -8 2h2l-30 10l-2 -2l-3 2h-4q-47 16 -76.5 21.5t-70.5 5.5q-109 0 -189.5 -78t-103.5 -176q0 -49 43 -50h88q-141 -59 -235.5 -187t-124.5 -302q-10 -63 -11 -125q0 -188 109 -299 t309 -111q117 0 217.5 39t178.5 109q160 147 200 387q12 66 13 125q0 190 -110 299.5t-310 109.5q-92 0 -183 -26q16 16 23 26q8 25 23.5 41.5t31.5 16.5q29 0 82 -17l-4 2l10 -6h8l29 -10h4q29 -6 51.5 -9t61.5 -3q104 0 182 82t96 184zM899 510q-23 -133 -100.5 -225 t-194.5 -92q-96 0 -144 64.5t-48 166.5q0 41 8 86q23 135 100.5 227t194.5 92q96 0 144 -64.5t48 -168.5q0 -41 -8 -86z" />
<glyph unicode="&#xf6;" horiz-adv-x="1146" d="M1102 1120q0 4 2 13v12q0 49 -36 83t-93 34q-66 0 -118 -42t-62 -100v-10q-2 -8 -2 -10q0 -33 14 -58q-4 0 -27 2h-26q-27 0 -72 -4q33 37 39 80q0 4 2 13v12q0 49 -36 83t-93 34q-63 0 -116.5 -42t-63.5 -100v-10q-2 -8 -2 -10q0 -39 22.5 -70t59.5 -43 q-131 -63 -219.5 -187t-116.5 -290q-10 -63 -11 -125q0 -188 109 -299t309 -111q117 0 217.5 39t178.5 109q160 147 200 387q12 66 13 125q0 123 -48.5 214t-138.5 140q45 18 76 53t39 78zM899 510q-23 -133 -100.5 -225t-194.5 -92q-96 0 -144 64.5t-48 166.5q0 41 8 86 q23 135 100.5 227t194.5 92q96 0 144 -64.5t48 -168.5q0 -41 -8 -86z" />
<glyph unicode="&#xf7;" horiz-adv-x="1124" d="M1188 522q53 0 59 51l27 142q0 51 -43 51h-1028q-53 0 -60 -51l-26 -142q0 -51 43 -51h1028zM915 967q0 4 3 14v14q0 55 -39 95t-99 40q-66 0 -122 -47t-68 -116v-13l-2 -12q0 -57 38 -97t97 -40q66 0 123 47t69 115zM803 322q0 6 2 12v12q0 57 -39 97t-98 40 q-66 0 -123.5 -47t-67.5 -114q0 -4 -2 -15v-14q0 -55 39 -94t96 -39q68 0 124.5 46t68.5 116z" />
<glyph unicode="&#xf8;" horiz-adv-x="1099" d="M1161 512q10 63 10 121q0 119 -45 209l76 71q18 12 23 35q0 18 -13 39l-57 62h2q-12 14 -35 14q-20 0 -41 -16l-71 -70q-109 70 -256 70q-117 0 -217.5 -38t-178.5 -110q-158 -145 -200 -387q-12 -68 -13 -127q0 -119 45 -207l-77 -76v2q-12 -10 -17 -30v-2q0 -29 10 -41 l62 -60q8 -10 29 -10q20 0 41 16l69 70q109 -72 258 -72q117 0 217.5 39t178 111t129 170t71.5 217zM899 512q-23 -135 -100.5 -227t-194.5 -92q-72 0 -117 28l416 404q0 -2 2 -19v-20q0 -35 -6 -74zM420 512q23 135 100.5 226t194.5 91q74 0 112 -30l-415 -406v15 q-2 10 -2 16q0 37 10 88z" />
<glyph unicode="&#xf9;" horiz-adv-x="1200" d="M1239 139l-37 80q-14 25 -39 25q-8 0 -24 -6l-4 -2l-5 -3q-4 -4 -6 -4t-8 -4q-29 -12 -39 -12l135 758q0 49 -43 49h-151q-53 0 -60 -49l-79 -449q-23 -137 -96.5 -228t-190.5 -91q-61 0 -90 33.5t-29 95.5q0 29 6 63l76 426q4 25 4 47q0 68 -41 110t-127 42 q-49 0 -110.5 -22.5t-116.5 -57.5h2q-25 -12 -31 -41q0 -23 6 -31l25 -63q14 -25 41 -25q23 0 35 13l-4 -2q33 20 53 20q2 0 2 -4v-4q-2 -6 -2 -10l-76 -439q-10 -53 -10 -98q0 -133 83 -207t253 -74q84 0 157.5 30t135.5 79q31 -84 145 -84q55 0 118.5 24.5t123.5 65.5z M887 1001q49 0 57 50q0 8 -2 20q-2 8 -2 10l-203 355v-4q-2 8 -16 16t-23 8h-153q-23 0 -39.5 -14.5t-20.5 -32.5q0 -25 9 -35v4l223 -356l-2 4q2 -8 16 -16.5t21 -8.5h135z" />
<glyph unicode="&#xfa;" horiz-adv-x="1200" d="M1239 139l-37 80q-14 25 -39 25q-8 0 -24 -6l-4 -2l-5 -3q-4 -4 -6 -4t-8 -4q-29 -12 -39 -12l135 758q0 49 -43 49h-151q-53 0 -60 -49l-79 -449q-23 -137 -96.5 -228t-190.5 -91q-61 0 -90 33.5t-29 95.5q0 29 6 63l76 426q4 25 4 47q0 68 -41 110t-127 42 q-49 0 -110.5 -22.5t-116.5 -57.5h2q-25 -12 -31 -41q0 -23 6 -31l25 -63q14 -25 41 -25q23 0 35 13l-4 -2q33 20 53 20q2 0 2 -4v-4q-2 -6 -2 -10l-76 -439q-10 -53 -10 -98q0 -133 83 -207t253 -74q84 0 157.5 30t135.5 79q31 -84 145 -84q55 0 118.5 24.5t123.5 65.5z M1130 1378l-4 -4q14 12 19 35q0 47 -41 47h-156q-8 0 -22.5 -7t-22.5 -15l4 2l-329 -355l2 4q-14 -12 -19 -32v-2q0 -49 41 -50h133q8 0 22.5 7.5t20.5 17.5v-4z" />
<glyph unicode="&#xfb;" horiz-adv-x="1200" d="M1239 139l-37 80q-14 25 -39 25q-8 0 -24 -6l-4 -2l-5 -3q-4 -4 -6 -4t-8 -4q-29 -12 -39 -12l135 758q0 49 -43 49h-79q8 8 12 27v4q2 4 2 8q0 8 -6 16l-150 373l-2 -2q-4 8 -16 17.5t-23 9.5h-168q-8 0 -26.5 -9.5t-22.5 -17.5l-282 -377l6 8q-10 -8 -15 -26l-2 -4v-7 l-2 -4q0 -10 6 -16h-10q-49 0 -110.5 -22.5t-116.5 -57.5h2q-25 -12 -31 -41q0 -23 6 -31l25 -63q14 -25 41 -25q23 0 35 13l-4 -2q33 20 53 20q2 0 2 -4v-4q-2 -6 -2 -10l-76 -439q-10 -53 -10 -98q0 -133 83 -207t253 -74q84 0 157.5 30t135.5 79q31 -84 145 -84 q55 0 118.5 24.5t123.5 65.5zM958 971l-79 -449q-23 -137 -96.5 -228t-190.5 -91q-61 0 -90 33.5t-29 95.5q0 29 6 63l76 426q4 25 4 45q0 92 -67 131h67q10 0 23.5 5.5t17.5 9.5l174 231l103 -229q4 -4 16 -10.5t20 -6.5h56q-11 -14 -11 -26z" />
<glyph unicode="&#xfc;" horiz-adv-x="1200" d="M1114 1120q0 4 2 13v12q0 49 -36 83t-93 34q-66 0 -118 -42t-62 -100v-10q-2 -8 -2 -12q0 -51 36 -85t95 -34q14 0 22 2l-79 -459q-23 -137 -96.5 -228t-190.5 -91q-61 0 -90 33.5t-29 95.5q0 29 6 63l76 426q4 23 4 45q0 80 -51 119q18 -6 47 -6q66 0 118 41t60 100 q0 4 2 13v12q0 49 -35.5 83t-93.5 34q-63 0 -116.5 -42t-63.5 -100v-12q-2 -6 -2 -10q0 -55 45 -90q-33 12 -78 12q-49 0 -110.5 -22.5t-116.5 -57.5h2q-25 -12 -31 -41q0 -23 6 -31l25 -63q14 -25 41 -25q23 0 35 13l-4 -2q33 20 53 20q2 0 2 -4v-4q-2 -6 -2 -10l-76 -439 q-10 -53 -10 -98q0 -133 83 -207t253 -74q84 0 157.5 30t135.5 79q31 -84 145 -84q55 0 118.5 24.5t123.5 65.5l18 49l-37 80q-14 25 -39 25q-8 0 -24 -6l-4 -2l-5 -3q-4 -4 -6 -4t-8 -4q-29 -12 -39 -12l135 758q0 49 -43 49h-116q51 39 61 100z" />
<glyph unicode="&#xfd;" horiz-adv-x="1161" d="M1049 86l159 897q0 51 -43 51h-151q-51 0 -58 -51l-84 -469q-27 -135 -98.5 -222t-181.5 -87q-61 0 -91 34.5t-30 98.5q0 29 6 61l78 432q4 25 4 48q0 70 -41 112.5t-125 42.5q-49 0 -111.5 -22.5t-115.5 -59.5h2q-23 -12 -31 -43v-6l-2 -6q0 -10 8 -18l25 -64 q14 -25 39 -24q12 0 33 10q33 20 53 20v-4q-2 -8 -2 -16l-78 -443q-8 -51 -8 -98q0 -135 82 -210t250 -75q72 0 139 25t127 66q-27 -154 -98.5 -237t-223.5 -83q-82 0 -145.5 16.5t-114.5 42.5l2 -2q-10 6 -22 7q-47 0 -58 -50l-22 -131q0 -39 22 -47h-2q59 -27 136 -43 t176 -16q252 0 399.5 143.5t196.5 419.5zM1165 1378l-4 -4q14 12 19 35q0 47 -41 47h-156q-8 0 -22.5 -7t-22.5 -15l4 2l-330 -355l2 4q-14 -12 -18 -32v-2q0 -49 41 -50h133q8 0 22.5 7.5t20.5 17.5v-4z" />
<glyph unicode="&#xfe;" horiz-adv-x="1196" d="M1260 520q12 74 12 142q0 186 -100.5 294.5t-294.5 108.5q-74 0 -151 -24.5t-142 -69.5l80 463q6 29 6 57q0 70 -39 112t-123 42q-49 0 -110.5 -24t-118.5 -60h2q-25 -14 -29 -41v-4q-2 -4 -2 -9q0 -10 6 -18l-2 8l29 -74q10 -25 39 -24q23 0 34 12l-4 -2q33 20 54 21 q6 0 6 -11v-6q-2 -6 -2 -10l-320 -1813v-8q-2 -2 -2 -6q0 -35 43 -35h154q51 0 59 49l82 471q98 -86 274 -86q104 0 197.5 41t167.5 115t124.5 173t70.5 216zM991 520q-25 -137 -98.5 -227t-185.5 -90q-98 0 -151.5 66.5t-53.5 172.5q0 39 6 78q23 133 110 226.5t205 93.5 q90 0 133 -60.5t43 -161.5q0 -47 -8 -98z" />
<glyph unicode="&#xff;" horiz-adv-x="1161" d="M1108 1120q0 4 2 13v12q0 49 -36 83t-93 34q-66 0 -118 -42t-62 -100v-10q-2 -8 -2 -12q0 -51 35.5 -85t95.5 -34q16 0 24 2l-82 -467q-27 -135 -98.5 -222t-181.5 -87q-61 0 -91 34.5t-30 98.5q0 29 6 61l78 432q4 25 4 46q0 63 -33 104q6 -2 23 -2q66 0 118 41t60 100 q0 4 2 13v12q0 49 -36 83t-93 34q-63 0 -116.5 -42t-63.5 -100v-12q-2 -8 -2 -10q0 -37 22 -68q-29 4 -47 4q-49 0 -111.5 -22.5t-115.5 -59.5h2q-23 -12 -31 -43v-6l-2 -6q0 -10 8 -18l25 -64q14 -25 39 -24q12 0 33 10q33 20 53 20v-4q-2 -8 -2 -16l-78 -443 q-8 -51 -8 -98q0 -135 82 -210t250 -75q72 0 139 25t127 66q-27 -154 -98.5 -237t-223.5 -83q-82 0 -145.5 16.5t-114.5 42.5l2 -2q-10 6 -22 7q-47 0 -58 -50l-22 -131q0 -39 22 -47h-2q59 -27 136 -43t176 -16q252 0 399 143.5t197 419.5l159 897q0 51 -43 51h-102 q39 39 45 86z" />
<glyph unicode="&#x152;" horiz-adv-x="1855" d="M1812 0q53 0 60 51l22 125v6l2 6q0 39 -43 39h-612l78 449h487q51 0 62 51l22 127q0 51 -43 51h-487l67 381h545q23 0 40.5 14.5t19.5 34.5l22 127v6l2 7q0 37 -45 36h-471q-92 0 -171 3.5t-167 9.5q-98 6 -182 6q-344 0 -556 -209t-274 -565q-18 -111 -18 -209 q0 -266 142.5 -415.5t430.5 -149.5q74 0 160 6h6q6 2 11 2h18q12 2 23 2q143 8 241 8h608zM788 215q-174 0 -252.5 97.5t-78.5 267.5q0 80 16 176q20 117 59 214t100.5 172t148.5 115.5t198 40.5q102 0 186 -8l-188 -1067q-95 -8 -189 -8z" />
<glyph unicode="&#x153;" horiz-adv-x="1748" d="M1751 406q53 0 59 51l13 65q14 84 14 154q0 369 -377 368q-113 0 -205 -40.5t-168 -118.5q-53 76 -138 117.5t-197 41.5q-229 0 -390 -146t-202 -388q-10 -63 -10 -125q0 -188 108.5 -299t304.5 -111q217 0 379 158q45 -72 131 -115t217 -43q125 0 205 18.5t145 51.5 q27 12 35 45l23 127q0 51 -43 51q-12 0 -25 -6q-55 -29 -124.5 -47t-155.5 -18q-109 0 -161 60t-56 149h618zM891 510q-23 -135 -97.5 -226t-191.5 -91q-94 0 -140 63t-46 166q0 41 8 88q23 135 98.5 227t190.5 92q96 0 141 -61t45 -164q0 -45 -8 -94zM1417 831 q80 0 116 -44t36 -130q0 -6 -2 -18v-21h-398q39 104 99.5 158.5t148.5 54.5z" />
<glyph unicode="&#x178;" horiz-adv-x="1202" d="M1409 1298q53 0 59 52l21 118v7l2 6q0 39 -43 39h-191q-10 0 -27.5 -9.5t-21.5 -17.5l-424 -567l-249 569v-2q-6 10 -17.5 18.5t-21.5 8.5h-207q-20 0 -38 -14.5t-22 -37.5l-20 -118q0 -51 41 -52h69l283 -632l-78 -447h-67q-51 0 -62 -51l-20 -117q0 -51 43 -51h399 q53 0 60 51l20 117v6l2 6q0 39 -43 39h-68l80 455l465 624h76zM821 1675q0 6 2 15v14q0 55 -36.5 93t-94.5 38q-63 0 -117.5 -47t-66.5 -113q0 -4 -2 -14v-12q0 -57 37 -94t94 -37q66 0 120 45.5t64 111.5zM1307 1675q0 6 2 15v14q0 55 -37 93t-94 38q-63 0 -117.5 -47 t-67.5 -113q0 -4 -2 -14v-12q0 -57 37 -94t94 -37q66 0 120.5 45.5t64.5 111.5z" />
<glyph unicode="&#x2c6;" horiz-adv-x="1007" d="M1001 997q23 0 40.5 14.5t19.5 35.5v4q2 4 2 8q0 8 -6 16l-150 373l-2 -2q-4 8 -16 17.5t-23 9.5h-168q-8 0 -26.5 -9.5t-22.5 -17.5l-282 -377l6 8q-10 -8 -15 -26l-2 -4q0 -49 41 -50h121q10 0 23.5 5.5t17.5 9.5l174 231l103 -229q4 -4 16 -10.5t20 -6.5h129z" />
<glyph unicode="&#x2dc;" horiz-adv-x="1009" d="M1096 1360h-119q-20 0 -36.5 -13.5t-20.5 -31.5q-6 -23 -21.5 -40.5t-32.5 -17.5q-16 0 -39 7q-4 2 -8 2h2l-30 10l-3 -2l-2 2h-4q-47 16 -76.5 21.5t-70.5 5.5q-109 0 -189.5 -78t-103.5 -176q0 -49 43 -50h104q12 0 32 14.5t28 30.5q8 25 23.5 41.5t31.5 16.5 q29 0 82 -17l-4 2l10 -6h8l29 -10h4q29 -6 51.5 -9t61.5 -3q104 0 182 82t96 184z" />
<glyph unicode="&#x2000;" horiz-adv-x="952" />
<glyph unicode="&#x2001;" horiz-adv-x="1906" />
<glyph unicode="&#x2002;" horiz-adv-x="952" />
<glyph unicode="&#x2003;" horiz-adv-x="1906" />
<glyph unicode="&#x2004;" horiz-adv-x="634" />
<glyph unicode="&#x2005;" horiz-adv-x="475" />
<glyph unicode="&#x2006;" horiz-adv-x="317" />
<glyph unicode="&#x2007;" horiz-adv-x="317" />
<glyph unicode="&#x2008;" horiz-adv-x="237" />
<glyph unicode="&#x2009;" horiz-adv-x="380" />
<glyph unicode="&#x200a;" horiz-adv-x="104" />
<glyph unicode="&#x2010;" horiz-adv-x="641" d="M629 328q51 0 57 47l23 123q0 47 -41 47h-463q-53 0 -60 -47l-22 -123q0 -47 43 -47h463z" />
<glyph unicode="&#x2011;" horiz-adv-x="641" d="M629 328q51 0 57 47l23 123q0 47 -41 47h-463q-53 0 -60 -47l-22 -123q0 -47 43 -47h463z" />
<glyph unicode="&#x2012;" horiz-adv-x="641" d="M629 328q51 0 57 47l23 123q0 47 -41 47h-463q-53 0 -60 -47l-22 -123q0 -47 43 -47h463z" />
<glyph unicode="&#x2013;" horiz-adv-x="1024" d="M1061 328q53 0 59 45l21 116v7l2 4q0 37 -45 37h-983q-49 0 -60 -48l-20 -116q0 -45 43 -45h983z" />
<glyph unicode="&#x2014;" horiz-adv-x="2048" d="M2085 328q53 0 59 45l21 116v7l2 4q0 37 -45 37h-2007q-49 0 -60 -48l-20 -116q0 -45 43 -45h2007z" />
<glyph unicode="&#x2018;" horiz-adv-x="520" d="M741 1507l-112 41h-8q-23 0 -41 -14q-72 -72 -155 -191.5t-136 -242.5q0 -2 -2 -2l-2 -2q0 -14 8 -29.5t18 -19.5l170 -50h4q43 0 58 41q37 104 96 221t117 197z" />
<glyph unicode="&#x2019;" horiz-adv-x="520" d="M725 1497l-182 53l-2 2h-2q-18 0 -36 -13t-20 -34v6q-37 -106 -94 -217.5t-110 -185.5q-6 -8 -9 -18l-2 -5q0 -41 31 -49l-4 2l100 -39h11q23 0 32 9q74 76 161 199.5t142 246.5z" />
<glyph unicode="&#x201a;" horiz-adv-x="520" d="M487 240l-180 53h-4q-43 0 -57 -43q-35 -102 -92.5 -214t-110.5 -188q-10 -16 -10 -22v-6q-2 -2 -2 -6q0 -31 32 -37l-4 2l101 -37h8q27 0 33 6q35 37 74.5 85t80.5 108q94 133 148 254z" />
<glyph unicode="&#x201c;" horiz-adv-x="919" d="M770 1507l-119 41h-10q-8 0 -21.5 -5t-19.5 -9q-37 -35 -77 -83t-82 -104.5t-80.5 -121t-65.5 -123.5q0 -2 -4 -6q0 -45 31 -52l170 -47h12q18 0 34.5 11.5t22.5 29.5q39 104 101.5 221t121.5 197zM1139 1507l-119 41h-10q-8 0 -21.5 -5t-19.5 -9q-37 -35 -77 -83 t-82 -104.5t-81 -121t-65 -123.5q0 -2 -5 -6q0 -45 31 -52l170 -47h12q43 0 58 41q39 106 100.5 222t118.5 194z" />
<glyph unicode="&#x201d;" horiz-adv-x="919" d="M1118 1499l-182 51l-6 2h-8q-41 0 -56 -41q-37 -102 -96 -215.5t-115 -187.5q-6 -8 -8 -21l-2 -4v-6v-4q0 -29 27 -37l-2 2l106 -39h10q25 0 41 15q76 72 164 194.5t146 245.5zM750 1499l-183 51l-6 2h-8q-41 0 -55 -41q-35 -104 -95.5 -215.5t-115.5 -187.5 q-6 -8 -8 -21l-3 -4v-6v-4q0 -29 27 -37l-2 2l109 -39h8q25 0 41 15q76 72 164 194.5t145 245.5z" />
<glyph unicode="&#x201e;" horiz-adv-x="919" d="M508 242l-182 51h-13q-18 0 -35.5 -11.5t-23.5 -29.5q-35 -102 -95.5 -215t-115.5 -189q-10 -16 -10 -22v-6q-2 -2 -2 -6q0 -31 32 -37l-4 2l107 -37h10q8 0 21.5 4t19.5 8q76 74 164 196t143 245zM877 242l-183 51h-12q-18 0 -35.5 -11.5t-23.5 -29.5 q-35 -102 -95.5 -215t-115.5 -189q-10 -16 -11 -24q0 -41 29 -47l-2 2l107 -37h10q23 0 39 12q76 74 164 196t145 245z" />
<glyph unicode="&#x2022;" horiz-adv-x="978" d="M1012 735q6 35 6 68q0 131 -88 219t-225 88q-76 0 -150 -28.5t-135.5 -81t-102.5 -121t-55 -144.5q-6 -35 -6 -65q0 -133 89 -221.5t226 -88.5q78 0 151 29t134.5 81t101.5 120.5t54 144.5z" />
<glyph unicode="&#x2026;" horiz-adv-x="1996" d="M1212 133q0 4 2 12v13q0 53 -42 91t-103 38q-70 0 -128 -45t-71 -109v-12q-2 -6 -2 -10q0 -57 42 -94t104 -37q68 0 128 45t70 108zM547 133q0 4 2 12v13q0 53 -41 91t-102 38q-70 0 -129.5 -46t-71.5 -108v-12q-2 -6 -2 -10q0 -57 43 -94t104 -37q68 0 127.5 45 t69.5 108zM1876 133q0 4 2 12v13q0 53 -41 91t-102 38q-70 0 -128.5 -45t-70.5 -109v-12q-2 -6 -2 -10q0 -57 42 -94t103 -37q68 0 127.5 45t69.5 108z" />
<glyph unicode="&#x202f;" horiz-adv-x="380" />
<glyph unicode="&#x2039;" horiz-adv-x="595" d="M549 131q25 14 31 41v6l2 4q0 6 -7 25l-143 313l254 314q10 14 12 20l4 12v2q0 29 -16 41l-94 74l-4 2q-10 4 -19 4q-23 0 -43 -22l-333 -410q-16 -25 -19 -37q0 -29 6 -35l189 -411q12 -23 34 -23q16 0 25 6z" />
<glyph unicode="&#x203a;" horiz-adv-x="595" d="M635 498q0 2 2 10t4 12q0 18 2 23l-199 424q-8 23 -32 22q-8 0 -19 -4l-4 -2l-123 -74q-29 -18 -30 -39q0 -18 8 -36l139 -314l-250 -313q-20 -29 -20 -37v-4v-4q0 -16 16 -31l96 -74q10 -6 21 -6q25 0 41 23z" />
<glyph unicode="&#x205f;" horiz-adv-x="475" />
<glyph unicode="&#x20ac;" horiz-adv-x="1245" d="M1133 483q49 0 59 52l25 135q0 49 -43 49h-705l12 72h705q51 0 59 49l25 135v6l2 6q0 37 -45 37h-658q76 133 194 210t259 77q86 0 154.5 -17.5t140.5 -48.5q6 -6 26 -6q39 0 56 35l-4 -2l65 114q8 8 15 25v4v6l2 4q0 31 -29 39l4 -2q-86 39 -180 62.5t-219 23.5 q-250 0 -459 -141t-320 -383h-75q-49 0 -60 -49l-24 -135v-6l-2 -7q0 -37 45 -36h43l-13 -72h-43q-23 0 -39 -14.5t-20 -34.5l-25 -135v-7l-2 -6q0 -39 45 -39h76q25 -244 180.5 -382t409.5 -138q127 0 236.5 26.5t195.5 67.5q27 12 35 45l27 150q0 51 -41 51q-23 0 -35 -10 l10 4q-84 -43 -170 -66.5t-192 -23.5q-137 0 -230.5 72.5t-126.5 203.5h654z" />
<glyph unicode="&#x2122;" horiz-adv-x="1994" d="M1968 578q47 0 57 51l17 86q0 49 -41 49h-31l94 532h31q47 0 57 52l15 86v6q2 4 2 6q0 37 -41 37h-254q-8 0 -26.5 -10.5t-24.5 -18.5l-301 -506l-129 506q-4 8 -16.5 18.5t-22.5 10.5h-252q-23 0 -40.5 -14.5t-21.5 -34.5l-14 -86v-7l-2 -6q0 -39 45 -39h29l-94 -532 h-29q-53 0 -60 -49l-16 -86v-6l-2 -7q0 -39 45 -38h188q49 0 60 51l72 407l106 -428q2 -12 16.5 -21t26.5 -9h80q12 0 28.5 10t24.5 22l-2 -2l254 424l-72 -403v-6l-2 -7q0 -39 45 -38h201zM952 1286q51 0 60 49l16 99v6l2 4q0 39 -43 39h-647q-23 0 -40 -14.5t-21 -34.5 l-17 -99v-6l-2 -6q0 -37 45 -37h211l-92 -522h-33q-51 0 -57 -49l-17 -86v-6q-2 -4 -2 -7q0 -39 43 -38h291q49 0 60 51l16 86q0 49 -43 49h-31l92 522h209z" />
<glyph unicode="&#xe000;" horiz-adv-x="1040" d="M0 1040h1040v-1040h-1040v1040z" />
<glyph unicode="&#xfb01;" horiz-adv-x="1114" d="M1196 127l-35 82q-16 27 -37 27q-6 0 -20 -7q-8 -2 -13 -4q-8 -8 -24.5 -15t-24.5 -7q0 4 4 24l107 598l2 6q4 25 4 50q0 70 -39 111.5t-121 41.5q-47 0 -106.5 -22.5t-114.5 -59.5h2q-23 -12 -31 -43v-6l-2 -6q0 -10 9 -18l24 -64q14 -25 39 -24q12 0 33 10q29 20 49 20 q2 0 2 -4q0 -6 -4 -22l-103 -574l-2 -8q-8 -41 -8 -76q0 -74 38 -111.5t122 -37.5q51 0 112.5 25.5t120.5 66.5zM1247 1348q0 4 2 14v12q0 55 -36 93t-91 38q-63 0 -116.5 -47t-63.5 -110q0 -6 -2 -17v-16q0 -55 33.5 -90t91.5 -35q68 0 119 44t63 114zM995 1516l2 10v6 q2 4 2 6q0 23 -16 33q-51 35 -96 49t-103 14q-90 0 -161.5 -31.5t-120.5 -85t-79 -118t-42 -133.5l-41 -230h-123q-51 0 -57 -51l-21 -111v-8q-2 -2 -2 -6q0 -35 43 -35h123l-137 -774q0 -51 41 -51h151q20 0 38 14.5t20 36.5l137 774h170q51 0 59 49l21 111q0 51 -43 51 h-170l31 174q16 92 45.5 145.5t91.5 53.5q23 0 46 -7t48 -18q8 -10 31 -10q12 0 27.5 9.5t23.5 21.5z" />
<glyph unicode="&#xfb02;" horiz-adv-x="1085" d="M1161 127l-35 82q-16 27 -39 27q-16 0 -30 -11q-16 -10 -30.5 -16t-21.5 -6q0 4 4 26l211 1196q4 29 4 54q0 72 -37.5 113.5t-119.5 41.5q-47 0 -107.5 -22.5t-111.5 -59.5h2q-27 -14 -31 -43v-8l-2 -6q0 -8 6 -16l-2 8l27 -72q14 -25 41 -24q18 0 34 12l-4 -2 q29 20 49 20q2 0 3 -4q0 -6 -5 -22l-206 -1172q-8 -49 -9 -84q0 -76 37 -113.5t121 -37.5q53 0 113.5 24.5t120.5 67.5zM995 1516l2 10v6q2 4 2 6q0 23 -16 33q-51 35 -96 49t-103 14q-90 0 -161.5 -31.5t-120.5 -85t-79 -118t-42 -133.5l-41 -230h-123q-51 0 -57 -51 l-21 -111v-8q-2 -2 -2 -6q0 -35 43 -35h123l-137 -774q0 -51 41 -51h151q20 0 38 14.5t20 36.5l137 774h170q51 0 59 49l21 111q0 51 -43 51h-170l31 174q16 92 45.5 145.5t91.5 53.5q23 0 46 -7t48 -18q8 -10 31 -10q12 0 27.5 9.5t23.5 21.5z" />
<glyph unicode="&#xfb03;" horiz-adv-x="1720" d="M1802 127l-35 82q-16 27 -37 27q-6 0 -20 -7q-8 -2 -13 -4q-8 -8 -24.5 -15t-24.5 -7q0 4 4 24l107 598l2 6q4 25 4 50q0 70 -39 111.5t-121 41.5q-47 0 -106.5 -22.5t-114.5 -59.5h2q-23 -12 -31 -43v-6l-2 -6q0 -10 9 -18l24 -64q14 -25 39 -24q12 0 33 10q29 20 49 20 q2 0 2 -4q0 -6 -4 -22l-103 -574l-2 -8q-8 -41 -8 -76q0 -74 38 -111.5t122 -37.5q51 0 112.5 25.5t120.5 66.5zM1853 1348q0 4 2 14v12q0 55 -36 93t-91 38q-63 0 -116.5 -47t-63.5 -110q0 -6 -2 -17v-16q0 -55 33.5 -90t91.5 -35q68 0 119 44t63 114zM1601 1516l2 10v6 q2 4 2 6q0 23 -16 33q-51 35 -96 49t-103 14q-90 0 -161.5 -31.5t-120.5 -85t-79 -118t-42 -133.5l-41 -230h-123q-51 0 -57 -51l-21 -111v-8q-2 -2 -2 -6q0 -35 43 -35h123l-137 -774q0 -51 41 -51h151q20 0 38 14.5t20 36.5l137 774h170q51 0 59 49l21 111q0 51 -43 51 h-170l31 174q16 92 45.5 145.5t91.5 53.5q23 0 46 -7t48 -18q8 -10 31 -10q12 0 27.5 9.5t23.5 21.5zM995 1516l2 10v6q2 4 2 6q0 23 -16 33q-51 35 -96 49t-103 14q-90 0 -161.5 -31.5t-120.5 -85t-79 -118t-42 -133.5l-41 -230h-123q-51 0 -57 -51l-21 -111v-8 q-2 -2 -2 -6q0 -35 43 -35h123l-137 -774q0 -51 41 -51h151q20 0 38 14.5t20 36.5l137 774h170q51 0 59 49l21 111q0 51 -43 51h-170l31 174q16 92 45.5 145.5t91.5 53.5q23 0 46 -7t48 -18q8 -10 31 -10q12 0 27.5 9.5t23.5 21.5z" />
<glyph unicode="&#xfb04;" horiz-adv-x="1691" d="M1767 127l-35 82q-16 27 -39 27q-16 0 -30 -11q-16 -10 -30.5 -16t-21.5 -6q0 4 4 26l211 1196q4 29 4 54q0 72 -37.5 113.5t-119.5 41.5q-47 0 -107.5 -22.5t-111.5 -59.5h2q-27 -14 -31 -43v-8l-2 -6q0 -8 6 -16l-2 8l27 -72q14 -25 41 -24q18 0 34 12l-4 -2 q29 20 49 20q2 0 3 -4q0 -6 -5 -22l-206 -1172q-8 -49 -9 -84q0 -76 37 -113.5t121 -37.5q53 0 113.5 24.5t120.5 67.5zM1601 1516l2 10v6q2 4 2 6q0 23 -16 33q-51 35 -96 49t-103 14q-90 0 -161.5 -31.5t-120.5 -85t-79 -118t-42 -133.5l-41 -230h-123q-51 0 -57 -51 l-21 -111v-8q-2 -2 -2 -6q0 -35 43 -35h123l-137 -774q0 -51 41 -51h151q20 0 38 14.5t20 36.5l137 774h170q51 0 59 49l21 111q0 51 -43 51h-170l31 174q16 92 45.5 145.5t91.5 53.5q23 0 46 -7t48 -18q8 -10 31 -10q12 0 27.5 9.5t23.5 21.5zM995 1516l2 10v6q2 4 2 6 q0 23 -16 33q-51 35 -96 49t-103 14q-90 0 -161.5 -31.5t-120.5 -85t-79 -118t-42 -133.5l-41 -230h-123q-51 0 -57 -51l-21 -111v-8q-2 -2 -2 -6q0 -35 43 -35h123l-137 -774q0 -51 41 -51h151q20 0 38 14.5t20 36.5l137 774h170q51 0 59 49l21 111q0 51 -43 51h-170 l31 174q16 92 45.5 145.5t91.5 53.5q23 0 46 -7t48 -18q8 -10 31 -10q12 0 27.5 9.5t23.5 21.5z" />
</font>
</defs>
</svg>
